# Blender 5.0.1
# www.blender.org
mtllib court-model.mtl
g Tree.005_Plane.012
v -8.071535 -0.082880 -12.516657
v -1.472250 -0.082880 -12.516657
v -8.071535 8.029884 -12.516657
v -1.472250 8.029884 -12.516657
vn -0.0000 -0.0000 1.0000
vt 0.000000 0.000000
vt 1.000000 0.000000
vt 1.000000 1.000000
vt 0.000000 1.000000
s 0
usemtl Tree.005
f 1/1/1 2/2/1 4/3/1 3/4/1
g Tree.004_Plane.011
v 3.125447 -0.082880 -20.117979
v 9.724731 -0.082880 -20.117979
v 3.125447 8.029884 -20.117979
v 9.724731 8.029884 -20.117979
vn -0.0000 -0.0000 1.0000
vt 0.000000 0.000000
vt 1.000000 0.000000
vt 1.000000 1.000000
vt 0.000000 1.000000
s 0
usemtl Tree.004
f 5/5/2 6/6/2 8/7/2 7/8/2
g Tree.003_Plane.014
v 17.143518 -0.082880 -13.789448
v 23.742804 -0.082880 -13.789448
v 17.143518 8.029884 -13.789448
v 23.742804 8.029884 -13.789448
vn -0.0000 -0.0000 1.0000
vt 0.000000 0.000000
vt 1.000000 0.000000
vt 1.000000 1.000000
vt 0.000000 1.000000
s 0
usemtl Tree.007
f 9/9/3 10/10/3 12/11/3 11/12/3
g Tree.002_Plane.006
v -15.154613 -0.161072 -17.141079
v -4.311453 -0.161072 -17.141079
v -15.154613 12.246137 -17.141079
v -4.311453 12.246137 -17.141079
vn -0.0000 -0.0000 1.0000
vt 0.000000 0.000000
vt 1.000000 0.000000
vt 1.000000 1.000000
vt 0.000000 1.000000
s 0
usemtl Tree.002
f 13/13/4 14/14/4 16/15/4 15/16/4
g Tree.001_Plane.005
v -5.421580 -0.161072 -13.789448
v 5.421580 -0.161072 -13.789448
v -5.421580 12.246137 -13.789448
v 5.421580 12.246137 -13.789448
vn -0.0000 -0.0000 1.0000
vt 0.000000 0.000000
vt 1.000000 0.000000
vt 1.000000 1.000000
vt 0.000000 1.000000
s 0
usemtl Tree.001
f 17/17/5 18/18/5 20/19/5 19/20/5
g Tree_Plane.001
v 7.810358 -0.082880 -13.789448
v 14.409641 -0.082880 -13.789448
v 7.810358 8.029884 -13.789448
v 14.409641 8.029884 -13.789448
vn -0.0000 -0.0000 1.0000
vt 0.000000 0.000000
vt 1.000000 0.000000
vt 1.000000 1.000000
vt 0.000000 1.000000
s 0
usemtl Tree
f 21/21/6 22/22/6 24/23/6 23/24/6
g Podium_Plane.016
v -0.775256 -0.103886 -7.184519
v 0.262971 -0.103886 -7.184519
v -0.775256 1.549174 -7.184519
v 0.262971 1.549174 -7.184519
vn -0.0000 -0.0000 1.0000
vt 0.000000 0.000000
vt 1.000000 0.000000
vt 1.000000 1.000000
vt 0.000000 1.000000
s 0
usemtl Material.005
f 25/25/7 26/26/7 28/27/7 27/28/7
g Plane_Plane.002
v -22.837156 0.000000 14.186289
v 22.837156 0.000000 14.186289
v -22.837156 0.000000 -14.186289
v 22.837156 0.000000 -14.186289
vn -0.0000 1.0000 -0.0000
vt 0.000000 0.000000
vt 1.000000 0.000000
vt 1.000000 1.000000
vt 0.000000 1.000000
s 0
usemtl Material.002
f 29/29/8 30/30/8 32/31/8 31/32/8
g Fence.002_Plane.008
v -17.314295 -0.218969 -10.433260
v 17.607454 -0.218969 -10.433260
v -17.314295 1.938925 -10.433260
v 17.607454 1.938925 -10.433260
vn -0.0000 -0.0000 1.0000
vt 0.000000 0.000000
vt 1.000000 0.000000
vt 1.000000 1.000000
vt 0.000000 1.000000
s 0
usemtl Material.004
f 33/33/9 34/34/9 36/35/9 35/36/9
g Fence.001_Plane.004
v 19.329737 -0.218969 8.647163
v 19.329737 -0.218969 -9.855486
v 19.329737 1.938925 8.647163
v 19.329737 1.938925 -9.855486
vn 1.0000 -0.0000 -0.0000
vt 0.000000 0.000000
vt 1.000000 0.000000
vt 1.000000 1.000000
vt 0.000000 1.000000
s 0
usemtl Material.004
f 37/37/10 38/38/10 40/39/10 39/40/10
g Fence_Plane.003
v -18.318964 -0.218969 8.647163
v -18.318964 -0.218969 -9.855486
v -18.318964 1.938925 8.647163
v -18.318964 1.938925 -9.855486
vn 1.0000 -0.0000 -0.0000
vt 0.000000 0.000000
vt 1.000000 0.000000
vt 1.000000 1.000000
vt 0.000000 1.000000
s 0
usemtl Material.004
f 41/41/11 42/42/11 44/43/11 43/44/11
g Court_Plane
v -17.087156 0.050000 12.046175
v 17.087156 0.050000 12.046175
v -17.087156 0.050000 -9.506403
v 17.087156 0.050000 -9.506403
vn -0.0000 1.0000 -0.0000
vt 0.000000 0.000000
vt 1.000000 0.000000
vt 1.000000 1.000000
vt 0.000000 1.000000
s 0
usemtl Material.003
f 45/45/12 46/46/12 48/47/12 47/48/12
g Bush.002_Plane.015
v 19.364582 -1.381282 -22.665966
v 28.113708 -1.381282 -22.665966
v 19.364582 3.868485 -22.665966
v 28.113708 3.868485 -22.665966
vn -0.0000 -0.0000 -1.0000
vt 0.000000 0.000000
vt 1.000000 0.000000
vt 1.000000 1.000000
vt 0.000000 1.000000
s 0
usemtl Tree.008
f 49/49/13 51/52/13 52/51/13 50/50/13
g Bush.001_Plane.013
v 6.361792 -1.310683 -22.665966
v 17.252745 -1.310683 -22.665966
v 6.361792 5.224249 -22.665966
v 17.252745 5.224249 -22.665966
vn -0.0000 -0.0000 1.0000
vt 0.000000 0.000000
vt 1.000000 0.000000
vt 1.000000 1.000000
vt 0.000000 1.000000
s 0
usemtl Tree.006
f 53/53/14 54/54/14 56/55/14 55/56/14
g Bush_Plane.007
v -28.808022 -2.198854 -27.402836
v -17.917068 -2.198854 -27.402836
v -28.808022 4.336078 -27.402836
v -17.917068 4.336078 -27.402836
vn -0.0000 -0.0000 1.0000
vt 0.000000 0.000000
vt 1.000000 0.000000
vt 1.000000 1.000000
vt 0.000000 1.000000
s 0
usemtl Tree.003
f 57/57/15 58/58/15 60/59/15 59/60/15
