# Blender 4.4.0
# www.blender.org
mtllib picnictable.mtl
o Cube
v 1.000000 1.000000 -1.000000
v 1.000000 -1.000000 -1.000000
v 1.000000 1.000000 1.000000
v 1.000000 -1.000000 1.000000
v -1.000000 1.000000 -1.000000
v -1.000000 -1.000000 -1.000000
v -1.000000 1.000000 1.000000
v -1.000000 -1.000000 1.000000
vn -0.0000 1.0000 -0.0000
vn -0.0000 -0.0000 1.0000
vn -1.0000 -0.0000 -0.0000
vn -0.0000 -1.0000 -0.0000
vn 1.0000 -0.0000 -0.0000
vn -0.0000 -0.0000 -1.0000
vt 0.625000 0.500000
vt 0.875000 0.500000
vt 0.875000 0.750000
vt 0.625000 0.750000
vt 0.375000 0.750000
vt 0.625000 1.000000
vt 0.375000 1.000000
vt 0.375000 0.000000
vt 0.625000 0.000000
vt 0.625000 0.250000
vt 0.375000 0.250000
vt 0.125000 0.500000
vt 0.375000 0.500000
vt 0.125000 0.750000
s 0
usemtl Material
f 1/1/1 5/2/1 7/3/1 3/4/1
f 4/5/2 3/4/2 7/6/2 8/7/2
f 8/8/3 7/9/3 5/10/3 6/11/3
f 6/12/4 2/13/4 4/5/4 8/14/4
f 2/13/5 1/1/5 3/4/5 4/5/5
f 6/11/6 5/10/6 1/1/6 2/13/6
o PicnicTable
v -29.530521 0.000009 -23.926149
v -29.530525 31.181107 -2.065009
v -29.530521 0.000003 -30.349480
v -29.530525 31.181099 -8.488339
v -31.235336 0.000009 -23.926149
v -31.235338 31.181107 -2.065009
v -31.235334 0.000003 -30.349480
v -31.235338 31.181099 -8.488339
v -29.530521 0.000009 23.926195
v -29.530521 0.000003 30.349527
v -29.530525 31.181099 8.488386
v -29.530525 31.181107 2.065056
v -31.235336 0.000009 23.926195
v -31.235338 31.181107 2.065056
v -31.235338 31.181099 8.488386
v -31.235334 0.000003 30.349527
v -27.825706 25.984261 -14.230618
v -27.825712 25.984261 14.230616
v -27.825706 31.181110 -15.958964
v -27.825712 31.181110 15.958962
v -29.530516 25.984261 -14.230618
v -29.530518 25.984261 14.230616
v -29.530516 31.181110 -15.958964
v -29.530518 31.181110 15.958962
v -27.825706 12.342578 -30.992733
v -27.825712 12.342578 30.992729
v -27.825706 17.539429 -33.130234
v -27.825712 17.539429 33.130230
v -29.530521 12.342578 -30.992733
v -29.530525 12.342578 30.992729
v -29.530521 17.539429 -33.130234
v -29.530525 17.539429 33.130230
v 29.530561 0.000009 -23.926147
v 29.530561 0.000003 -30.349480
v 29.530569 31.181099 -8.488339
v 29.530569 31.181107 -2.065009
v 31.235380 0.000009 -23.926147
v 31.235380 31.181107 -2.065009
v 31.235380 31.181099 -8.488339
v 31.235376 0.000003 -30.349480
v 29.530561 0.000009 23.926195
v 29.530569 31.181107 2.065056
v 29.530569 31.181099 8.488386
v 29.530561 0.000003 30.349527
v 31.235380 0.000009 23.926195
v 31.235376 0.000003 30.349527
v 31.235380 31.181099 8.488386
v 31.235380 31.181107 2.065056
v 27.825750 25.984261 -14.230618
v 27.825750 31.181110 -15.958964
v 27.825750 31.181110 15.958962
v 27.825750 25.984261 14.230616
v 29.530558 25.984261 -14.230618
v 29.530561 25.984261 14.230616
v 29.530561 31.181110 15.958962
v 29.530558 31.181110 -15.958964
v 27.825750 12.342578 -30.992733
v 27.825750 17.539429 -33.130234
v 27.825750 17.539429 33.130230
v 27.825750 12.342578 30.992729
v 29.530561 12.342578 -30.992733
v 29.530569 12.342578 30.992729
v 29.530569 17.539429 33.130230
v 29.530561 17.539429 -33.130234
v -32.996700 17.539425 28.195702
v 32.996700 17.539425 28.195702
v -32.996700 17.539425 23.245703
v 32.996700 17.539425 23.245703
v -32.996700 18.838638 28.195702
v 32.996700 18.838638 28.195702
v -32.996700 18.838638 23.245703
v 32.996700 18.838638 23.245703
v -32.996700 17.539425 33.665394
v 32.996700 17.539425 33.665394
v -32.996700 17.539425 28.715393
v 32.996700 17.539425 28.715393
v -32.996700 18.838638 33.665394
v 32.996700 18.838638 33.665394
v -32.996700 18.838638 28.715393
v 32.996700 18.838638 28.715393
v -32.996700 17.539425 -28.195702
v -32.996700 17.539425 -23.245703
v 32.996700 17.539425 -23.245703
v 32.996700 17.539425 -28.195702
v -32.996700 18.838638 -28.195702
v 32.996700 18.838638 -28.195702
v 32.996700 18.838638 -23.245703
v -32.996700 18.838638 -23.245703
v -32.996700 17.539425 -33.665394
v -32.996700 17.539425 -28.715393
v 32.996700 17.539425 -28.715393
v 32.996700 17.539425 -33.665394
v -32.996700 18.838638 -33.665394
v 32.996700 18.838638 -33.665394
v 32.996700 18.838638 -28.715393
v -32.996700 18.838638 -28.715393
v -32.996700 31.181110 -11.199228
v 32.996700 31.181110 -11.199228
v -32.996700 31.181110 -16.149227
v 32.996700 31.181110 -16.149227
v -32.996700 32.480320 -11.199228
v 32.996700 32.480320 -11.199228
v -32.996700 32.480320 -16.149227
v 32.996700 32.480320 -16.149227
v -32.996700 31.181110 -5.729537
v 32.996700 31.181110 -5.729537
v -32.996700 31.181110 -10.679537
v 32.996700 31.181110 -10.679537
v -32.996700 32.480320 -5.729537
v 32.996700 32.480320 -5.729537
v -32.996700 32.480320 -10.679537
v 32.996700 32.480320 -10.679537
v -32.996700 31.181110 -0.259846
v 32.996700 31.181110 -0.259846
v -32.996700 31.181110 -5.209846
v 32.996700 31.181110 -5.209846
v -32.996700 32.480320 -0.259846
v 32.996700 32.480320 -0.259846
v -32.996700 32.480320 -5.209846
v 32.996700 32.480320 -5.209846
v -32.996700 31.181110 5.209846
v 32.996700 31.181110 5.209846
v -32.996700 31.181110 0.259846
v 32.996700 31.181110 0.259846
v -32.996700 32.480320 5.209846
v 32.996700 32.480320 5.209846
v -32.996700 32.480320 0.259846
v 32.996700 32.480320 0.259846
v -32.996700 31.181110 10.679537
v 32.996700 31.181110 10.679537
v -32.996700 31.181110 5.729537
v 32.996700 31.181110 5.729537
v -32.996700 32.480320 10.679537
v 32.996700 32.480320 10.679537
v -32.996700 32.480320 5.729537
v 32.996700 32.480320 5.729537
v -32.996700 31.181110 16.149227
v 32.996700 31.181110 16.149227
v -32.996700 31.181110 11.199228
v 32.996700 31.181110 11.199228
v -32.996700 32.480320 16.149227
v 32.996700 32.480320 16.149227
v -32.996700 32.480320 11.199228
v 32.996700 32.480320 11.199228
v -27.825705 12.342574 -0.649607
v 27.825750 12.342574 -0.649607
v -27.825705 17.539425 -0.649607
v 27.825750 17.539425 -0.649607
v -27.825705 12.342574 0.649607
v 27.825750 12.342574 0.649607
v -27.825705 17.539425 0.649607
v 27.825750 17.539425 0.649607
vn 1.0000 -0.0000 -0.0000
vn -1.0000 -0.0000 -0.0000
vn -0.0000 -0.5741 0.8188
vn -0.0000 1.0000 -0.0000
vn -0.0000 0.5741 -0.8188
vn -0.0000 -1.0000 -0.0000
vn -0.0000 -0.5741 -0.8188
vn -0.0000 0.5741 0.8188
vn -0.0000 -0.3156 0.9489
vn -0.0000 -0.3156 -0.9489
vn -0.0000 -0.3804 0.9248
vn -0.0000 -0.3804 -0.9248
vn -0.0000 -0.0000 1.0000
vn -0.0000 -0.0000 -1.0000
vt 0.401784 0.002025
vt 0.440376 0.057070
vt 0.041827 0.057070
vt 0.003235 0.002026
vt 0.401784 0.129958
vt 0.003235 0.129958
vt 0.041827 0.074913
vt 0.440376 0.074913
vt 0.401784 0.147800
vt 0.003235 0.147800
vt 0.648276 0.229475
vt 0.840772 0.229475
vt 0.840772 0.280566
vt 0.648276 0.280566
vt 0.499443 0.012874
vt 0.499442 0.205371
vt 0.448352 0.205371
vt 0.448352 0.012874
vt 0.401641 0.296756
vt 0.003092 0.296756
vt 0.041684 0.241711
vt 0.440232 0.241711
vt 0.401641 0.168823
vt 0.440232 0.223868
vt 0.041684 0.223868
vt 0.003092 0.168823
vt 0.401641 0.150981
vt 0.003092 0.150981
vt 0.450824 0.286959
vt 0.450824 0.235868
vt 0.643321 0.235868
vt 0.643321 0.286959
vt 0.903647 0.372793
vt 0.849567 0.390993
vt 0.849566 0.054883
vt 0.903647 0.073084
vt 0.921387 0.372793
vt 0.921387 0.073084
vt 0.975467 0.054883
vt 0.975467 0.390993
vt 0.678527 0.004979
vt 0.841918 0.004979
vt 0.841918 0.055780
vt 0.678527 0.055780
vt 0.993208 0.054883
vt 0.993208 0.390993
vt 0.841918 0.055778
vt 0.678526 0.055778
vt 0.678526 0.004977
vt 0.841918 0.004977
vt 0.835284 0.972443
vt 0.781321 0.994996
vt 0.781321 0.295846
vt 0.835284 0.318400
vt 0.709656 0.972443
vt 0.709656 0.318400
vt 0.763619 0.295846
vt 0.763619 0.994997
vt 0.691953 0.972443
vt 0.691954 0.318400
vt 0.506319 0.065399
vt 0.673793 0.065399
vt 0.673793 0.116090
vt 0.506319 0.116090
vt 0.673792 0.116086
vt 0.506318 0.116086
vt 0.506318 0.065396
vt 0.673792 0.065396
vt 0.401642 0.296755
vt 0.003092 0.296755
vt 0.041684 0.241710
vt 0.440234 0.241710
vt 0.440233 0.223868
vt 0.041683 0.223868
vt 0.003091 0.168824
vt 0.003090 0.150981
vt 0.440377 0.057070
vt 0.041829 0.057070
vt 0.003237 0.002026
vt 0.401787 0.129958
vt 0.003239 0.129958
vt 0.041830 0.074913
vt 0.440377 0.074913
vt 0.401787 0.147801
vt 0.003240 0.147801
vt 0.840772 0.280566
vt 0.648276 0.280566
vt 0.903647 0.073084
vt 0.903647 0.372793
vt 0.849567 0.390994
vt 0.975467 0.054883
vt 0.975467 0.390994
vt 0.921387 0.372793
vt 0.678785 0.116163
vt 0.678785 0.065362
vt 0.842176 0.065362
vt 0.842176 0.116163
vt 0.993208 0.390993
vt 0.993208 0.054883
vt 0.678785 0.116163
vt 0.678785 0.065363
vt 0.842176 0.065363
vt 0.842176 0.116163
vt 0.835284 0.318400
vt 0.835284 0.972444
vt 0.781321 0.994998
vt 0.709656 0.318400
vt 0.763619 0.295846
vt 0.763619 0.994998
vt 0.709656 0.972444
vt 0.691954 0.972444
vt 0.507376 0.055148
vt 0.507376 0.004457
vt 0.674850 0.004457
vt 0.674850 0.055148
vt 0.506318 0.116089
vt 0.506318 0.065399
vt 0.673793 0.065399
vt 0.673793 0.116089
vt 0.602826 0.305116
vt 0.551021 0.305116
vt 0.551021 0.995791
vt 0.602827 0.995791
vt 0.616424 0.305116
vt 0.616424 0.995791
vt 0.668230 0.995791
vt 0.668229 0.305116
vt 0.515867 0.166164
vt 0.664211 0.166164
vt 0.664211 0.127228
vt 0.515867 0.127228
vt 0.681827 0.995791
vt 0.681827 0.305116
vt 0.664211 0.127229
vt 0.515866 0.127230
vt 0.515866 0.166164
vt 0.467562 0.305277
vt 0.415756 0.305277
vt 0.415756 0.995953
vt 0.467562 0.995953
vt 0.481159 0.305277
vt 0.481159 0.995953
vt 0.532965 0.995953
vt 0.532965 0.305277
vt 0.679039 0.168141
vt 0.827384 0.168141
vt 0.827384 0.129205
vt 0.679039 0.129205
vt 0.546562 0.995953
vt 0.546562 0.305277
vt 0.827384 0.129208
vt 0.679039 0.129208
vt 0.602826 0.305116
vt 0.602826 0.995791
vt 0.551020 0.995791
vt 0.551020 0.305116
vt 0.616423 0.305116
vt 0.668229 0.305116
vt 0.668229 0.995791
vt 0.616423 0.995791
vt 0.515866 0.166164
vt 0.515866 0.127229
vt 0.664211 0.127229
vt 0.681827 0.995791
vt 0.681827 0.305116
vt 0.664211 0.166165
vt 0.515866 0.166165
vt 0.515866 0.127229
vt 0.467562 0.305278
vt 0.415756 0.995953
vt 0.415756 0.305278
vt 0.481159 0.305278
vt 0.532965 0.305278
vt 0.481159 0.995953
vt 0.546562 0.995953
vt 0.546562 0.305278
vt 0.827384 0.168143
vt 0.679039 0.168143
vt 0.133433 0.306558
vt 0.081626 0.306558
vt 0.081627 0.997232
vt 0.133433 0.997232
vt 0.016223 0.306558
vt 0.016223 0.997232
vt 0.068029 0.997232
vt 0.068029 0.306558
vt 0.002626 0.306558
vt 0.002626 0.997232
vt 0.514223 0.214417
vt 0.662567 0.214417
vt 0.662567 0.175481
vt 0.514223 0.175481
vt 0.662567 0.175480
vt 0.514223 0.175480
vt 0.514223 0.214417
vt 0.271580 0.306097
vt 0.219774 0.306097
vt 0.219774 0.996773
vt 0.271580 0.996773
vt 0.154371 0.306097
vt 0.154371 0.996773
vt 0.206177 0.996773
vt 0.206177 0.306097
vt 0.140774 0.306097
vt 0.140774 0.996773
vt 0.677498 0.216132
vt 0.825842 0.216132
vt 0.825842 0.177198
vt 0.677498 0.177198
vt 0.825842 0.177196
vt 0.677498 0.177196
vt 0.677498 0.216132
vt 0.409707 0.305711
vt 0.357902 0.305711
vt 0.357902 0.996387
vt 0.409707 0.996387
vt 0.292498 0.305711
vt 0.292498 0.996387
vt 0.344304 0.996387
vt 0.344304 0.305711
vt 0.278901 0.305711
vt 0.278901 0.996387
vt 0.847752 0.044082
vt 0.996096 0.044082
vt 0.996096 0.005146
vt 0.847752 0.005146
vt 0.996096 0.005147
vt 0.847752 0.005147
vt 0.847752 0.044082
vt 0.357901 0.305712
vt 0.409708 0.305712
vt 0.409708 0.996387
vt 0.357901 0.996387
vt 0.344304 0.305712
vt 0.344304 0.996387
vt 0.292498 0.996387
vt 0.292498 0.305712
vt 0.847753 0.044082
vt 0.847753 0.005147
vt 0.996096 0.005147
vt 0.278901 0.996387
vt 0.278901 0.305712
vt 0.847753 0.005148
vt 0.996096 0.005148
vt 0.996096 0.044084
vt 0.847753 0.044084
vt 0.219774 0.306098
vt 0.271580 0.306098
vt 0.271580 0.996773
vt 0.219774 0.996773
vt 0.206177 0.306098
vt 0.154371 0.996773
vt 0.154371 0.306098
vt 0.677498 0.177198
vt 0.140774 0.996773
vt 0.140774 0.306098
vt 0.677498 0.177197
vt 0.825843 0.177197
vt 0.825843 0.216134
vt 0.677498 0.216134
vt 0.081626 0.306558
vt 0.133432 0.306558
vt 0.133432 0.997233
vt 0.081626 0.997233
vt 0.068029 0.306558
vt 0.068029 0.997233
vt 0.016223 0.997233
vt 0.016223 0.306558
vt 0.514223 0.214417
vt 0.514223 0.175482
vt 0.662567 0.175482
vt 0.002626 0.997233
vt 0.002626 0.306558
vt 0.514222 0.175482
vt 0.662567 0.175482
vt 0.662567 0.214418
vt 0.514222 0.214418
vt 0.867754 0.408404
vt 0.922143 0.408404
vt 0.922143 0.990844
vt 0.867754 0.990844
vt 0.990130 0.408404
vt 0.990130 0.990844
vt 0.935741 0.990844
vt 0.935741 0.408404
vt 0.854157 0.990844
vt 0.854157 0.408404
s 1
usemtl Picnic_Table
f 9/15/7 11/16/7 12/17/7 10/18/7
f 13/19/8 14/20/8 16/21/8 15/22/8
f 9/23/9 10/24/9 14/20/9 13/19/9
f 10/25/10 12/26/10 16/27/10 14/28/10
f 12/17/11 11/16/11 15/22/11 16/21/11
f 11/29/12 9/30/12 13/31/12 15/32/12
f 17/33/7 20/34/7 19/35/7 18/36/7
f 21/37/8 24/38/8 23/39/8 22/40/8
f 17/41/13 21/37/13 22/40/13 20/42/13
f 20/43/10 22/44/10 23/45/10 19/46/10
f 19/35/14 23/39/14 24/38/14 18/36/14
f 18/32/12 24/29/12 21/30/12 17/31/12
f 25/47/7 27/48/7 28/49/7 26/50/7
f 29/51/8 30/52/8 32/53/8 31/54/8
f 25/47/12 26/50/12 30/52/12 29/51/12
f 26/55/15 28/56/15 32/57/15 30/58/15
f 28/59/10 27/60/10 31/54/10 32/53/10
f 27/61/16 25/62/16 29/63/16 31/64/16
f 33/65/7 35/66/7 36/67/7 34/68/7
f 37/69/8 38/70/8 40/71/8 39/72/8
f 33/73/12 34/74/12 38/70/12 37/69/12
f 34/75/17 36/76/17 40/77/17 38/78/17
f 36/67/10 35/66/10 39/72/10 40/71/10
f 35/79/18 33/80/18 37/81/18 39/82/18
f 41/83/8 44/84/8 43/85/8 42/86/8
f 45/37/7 48/87/7 47/88/7 46/89/7
f 41/41/9 45/37/9 46/89/9 44/90/9
f 44/43/10 46/44/10 47/45/10 43/46/10
f 43/85/11 47/88/11 48/87/11 42/86/11
f 42/32/12 48/29/12 45/30/12 41/31/12
f 49/15/8 52/91/8 51/92/8 50/93/8
f 53/94/7 56/95/7 55/96/7 54/97/7
f 49/98/13 50/99/13 56/95/13 53/94/13
f 50/25/10 51/26/10 55/100/10 56/101/10
f 51/92/14 52/91/14 54/97/14 55/96/14
f 52/29/12 49/30/12 53/31/12 54/32/12
f 57/102/8 60/103/8 59/104/8 58/49/8
f 61/52/7 64/105/7 63/106/7 62/107/7
f 57/102/12 61/52/12 62/107/12 60/103/12
f 60/108/15 62/109/15 63/110/15 59/111/15
f 59/112/10 63/106/10 64/105/10 58/113/10
f 58/114/16 64/115/16 61/116/16 57/117/16
f 65/118/8 68/119/8 67/120/8 66/67/8
f 69/121/7 72/122/7 71/123/7 70/124/7
f 65/74/12 69/121/12 70/124/12 68/125/12
f 68/126/17 70/127/17 71/128/17 67/129/17
f 67/120/10 71/123/10 72/122/10 66/67/10
f 66/130/18 72/131/18 69/132/18 65/133/18
f 73/134/12 75/135/12 76/136/12 74/137/12
f 77/138/10 78/139/10 80/140/10 79/141/10
f 73/134/19 74/137/19 78/139/19 77/138/19
f 74/142/7 76/143/7 80/144/7 78/145/7
f 76/146/20 75/147/20 79/141/20 80/140/20
f 75/148/8 73/149/8 77/150/8 79/143/8
f 81/151/12 83/152/12 84/153/12 82/154/12
f 85/155/10 86/156/10 88/157/10 87/158/10
f 81/151/19 82/154/19 86/156/19 85/155/19
f 82/159/7 84/160/7 88/161/7 86/162/7
f 84/163/20 83/164/20 87/158/20 88/157/20
f 83/165/8 81/166/8 85/159/8 87/160/8
f 89/167/12 92/168/12 91/169/12 90/170/12
f 93/171/10 96/172/10 95/173/10 94/174/10
f 89/167/20 93/171/20 94/174/20 92/168/20
f 92/175/7 94/176/7 95/177/7 91/143/7
f 91/178/19 95/173/19 96/172/19 90/179/19
f 90/148/8 96/180/8 93/181/8 89/182/8
f 97/183/12 100/154/12 99/184/12 98/185/12
f 101/186/10 104/187/10 103/157/10 102/188/10
f 97/183/20 101/186/20 102/188/20 100/154/20
f 100/159/7 102/162/7 103/161/7 99/160/7
f 99/189/19 103/157/19 104/187/19 98/190/19
f 98/165/8 104/191/8 101/192/8 97/166/8
f 105/193/12 107/194/12 108/195/12 106/196/12
f 109/197/10 110/198/10 112/199/10 111/200/10
f 105/201/19 106/202/19 110/198/19 109/197/19
f 106/203/7 108/204/7 112/205/7 110/206/7
f 108/195/20 107/194/20 111/200/20 112/199/20
f 107/207/8 105/208/8 109/209/8 111/204/8
f 113/210/12 115/211/12 116/212/12 114/213/12
f 117/214/10 118/215/10 120/216/10 119/217/10
f 113/218/19 114/219/19 118/215/19 117/214/19
f 114/220/7 116/221/7 120/222/7 118/223/7
f 116/212/20 115/211/20 119/217/20 120/216/20
f 115/224/8 113/225/8 117/226/8 119/221/8
f 121/227/12 123/228/12 124/229/12 122/230/12
f 125/231/10 126/232/10 128/233/10 127/234/10
f 121/235/19 122/236/19 126/232/19 125/231/19
f 122/237/7 124/238/7 128/239/7 126/240/7
f 124/229/20 123/228/20 127/234/20 128/233/20
f 123/241/8 121/242/8 125/243/8 127/238/8
f 129/244/12 131/245/12 132/246/12 130/247/12
f 133/248/10 134/249/10 136/250/10 135/251/10
f 129/244/19 130/247/19 134/249/19 133/248/19
f 130/238/7 132/252/7 136/253/7 134/254/7
f 132/255/20 131/256/20 135/251/20 136/250/20
f 131/257/8 129/258/8 133/259/8 135/260/8
f 137/261/12 139/262/12 140/263/12 138/264/12
f 141/265/10 142/216/10 144/266/10 143/267/10
f 137/261/19 138/264/19 142/216/19 141/265/19
f 138/221/7 140/220/7 144/268/7 142/222/7
f 140/269/20 139/270/20 143/267/20 144/266/20
f 139/271/8 137/272/8 141/273/8 143/274/8
f 145/275/12 147/276/12 148/277/12 146/278/12
f 149/279/10 150/280/10 152/281/10 151/282/10
f 145/275/19 146/278/19 150/280/19 149/279/19
f 146/204/7 148/283/7 152/284/7 150/285/7
f 148/286/20 147/287/20 151/282/20 152/281/20
f 147/288/8 145/289/8 149/290/8 151/291/8
f 153/292/20 155/293/20 156/294/20 154/295/20
f 157/296/19 158/297/19 160/298/19 159/299/19
f 153/292/12 154/295/12 158/300/12 157/301/12
f 156/294/10 155/293/10 159/299/10 160/298/10
