# Blender 5.2.0 LTS
# www.blender.org
mtllib sink.mtl
o Cube
v 7.988671 0.578287 -1.095024
v 7.988671 -0.578287 -1.095024
v 7.236084 -0.341904 -0.768513
v 7.988671 0.578287 1.095024
v 7.988671 -0.578287 1.095024
v 7.236084 -0.341904 0.768513
v -7.988671 0.578287 -1.095024
v -7.988671 -0.578287 -1.095024
v -7.236084 -0.341904 -0.768513
v -7.988671 0.578287 1.095024
v -7.988671 -0.578287 1.095024
v -7.236084 -0.341904 0.768513
v -7.236084 0.578287 0.768513
v -7.236084 0.578287 -0.768513
v 7.236084 0.578287 0.768513
v 7.236084 0.578287 -0.768513
vn -0.0000 1.0000 -0.0000
vn -0.0000 -0.0000 1.0000
vn -1.0000 -0.0000 -0.0000
vn -0.0000 -1.0000 -0.0000
vn 1.0000 -0.0000 -0.0000
vn -0.0000 -0.0000 -1.0000
vt 0.636776 0.712728
vt 0.625000 0.750000
vt 0.625000 0.500000
vt 0.636776 0.537272
vt 0.875000 0.500000
vt 0.875000 0.750000
vt 0.863224 0.712728
vt 0.863224 0.537272
vt 0.375000 0.750000
vt 0.625000 1.000000
vt 0.375000 1.000000
vt 0.375000 0.000000
vt 0.625000 0.000000
vt 0.625000 0.250000
vt 0.375000 0.250000
vt 0.125000 0.500000
vt 0.375000 0.500000
vt 0.125000 0.750000
vt 0.573904 1.000000
vt 0.573904 0.750000
vt 0.573904 0.000000
vt 0.573904 0.250000
vt 0.573904 0.500000
s 0
usemtl Material
f 15/1/1 4/2/1 1/3/1 16/4/1
f 16/4/1 1/3/1 7/5/1 10/6/1 4/2/1 15/1/1 13/7/1 14/8/1
f 5/9/2 4/2/2 10/10/2 11/11/2
f 11/12/3 10/13/3 7/14/3 8/15/3
f 8/16/4 2/17/4 5/9/4 11/18/4
f 2/17/5 1/3/5 4/2/5 5/9/5
f 8/15/6 7/14/6 1/3/6 2/17/6
f 6/9/6 12/11/6 13/19/6 15/20/6
f 13/21/5 12/12/5 9/15/5 14/22/5
f 9/16/1 12/18/1 6/9/1 3/17/1
f 3/17/3 6/9/3 15/20/3 16/23/3
f 14/22/2 9/15/2 3/17/2 16/23/2
