# Wavefront Obj file
# 
# verts: 129 uv-s: 176
mtllib stone-stairs-05-test.mtl

g mmGroup0
#pivot 0.000000 0.000000 0.000000

v -21.422352 32.576675 -246.111191
v 16.976133 -6.530262 -247.114304
v 128.708618 -44.830147 -46.687119
v 131.698120 -36.500633 -243.121780
v -130.327179 6.058247 -110.508224
v 135.026093 -19.242496 -108.637794
v -5.820170 -21.168299 -45.031647
v 134.441193 -26.328829 -51.078728
v 123.332703 -5.020961 -247.083313
v -133.258850 -29.616978 -46.755081
v 129.892334 38.939087 -184.075897
v 4.937506 42.282837 -213.750946
v -16.733847 -36.134338 -41.679855
v -132.474548 6.449688 -124.502190
v -131.427521 37.774246 -180.834885
v -128.700989 9.004598 -148.297989
v -131.112579 -43.931541 -242.193024
v 130.406555 12.194677 -173.733566
v -134.997772 -40.191971 -128.694061
v -136.118256 -31.977697 -227.773148
v -134.959229 -24.759390 -98.898193
v 5.712756 -45.143738 -243.160309
v -130.540405 -4.896607 -107.625931
v 134.498322 -37.638840 -49.818390
v -133.892029 -42.334694 -54.780975
v 125.284630 -17.674541 -63.656410
v -95.562210 -17.448698 -86.231186
v 126.122856 -41.288727 -43.662209
v -39.051113 41.503212 -185.575195
v -122.937866 31.797478 -176.118637
v 130.915833 -43.645996 -242.495346
v -127.624878 -20.971819 -45.729774
v 130.460999 -45.692902 -54.647293
v 25.814182 -45.151901 -45.405464
v -125.282997 -47.600670 -236.937622
v -122.148399 1.371453 -107.500679
v 123.133423 -47.069954 -239.542694
v 135.074738 25.154163 -184.714523
v -135.065216 0.210938 -153.729904
v -121.978943 -17.009823 -70.832787
v 117.203842 -29.623302 -41.533371
v 103.983658 41.265816 -184.203995
v 129.110321 -46.222191 -142.041946
v 2.689230 -17.091814 -57.954384
v 120.823349 -42.078857 -245.464996
v 135.128937 4.356007 -177.214554
v 16.754887 34.128830 -176.927399
v -125.598877 41.105705 -184.937805
v -0.464734 9.935163 -117.060326
v 134.855194 34.083565 -208.060867
v 135.741882 -6.156910 -126.473503
v -9.023010 41.329735 -238.083939
v 119.002701 27.139885 -175.109039
v -19.016911 4.193104 -108.157608
v -124.215340 -43.360153 -244.433182
v 122.907021 10.178438 -141.903503
v -135.517487 7.549528 -235.913300
v 131.553802 3.587506 -110.769920
v 130.137878 8.202635 -164.651443
v 132.121185 38.000816 -238.936920
v 129.635101 -31.901815 -43.212471
v 115.934349 -48.282219 -54.805428
v 133.362213 -0.221248 -241.609741
v 86.643646 -14.696325 -100.673294
v 121.590065 -8.300888 -104.513481
v 125.595184 1.247397 -107.549644
v 130.169525 33.447342 -244.521301
v -135.417358 -4.883998 -120.125717
v -133.055450 37.915054 -199.320313
v 46.415150 -17.601841 -89.984245
v -114.697769 42.561462 -197.671005
v -126.350739 -47.494690 -160.797073
v -130.530609 -19.336815 -55.159966
v 129.868103 -16.300507 -101.432518
v -131.705872 -14.372585 -105.860168
v -134.338196 33.521385 -236.922684
v -73.279602 -47.975716 -236.393585
v -122.422981 -29.126408 -41.940704
v -24.649281 -8.221751 -104.747665
v 123.572510 41.428017 -236.227570
v -134.854889 31.050247 -184.952621
v 130.938507 25.741911 -177.456497
v 10.357780 -35.766174 -247.051666
v -121.156998 -14.069594 -100.833801
v -117.328735 -46.915314 -48.062843
v 135.838989 -34.932266 -129.537445
v 136.028534 -5.317809 -212.913116
v -131.972229 39.013214 -235.788696
v -25.053011 10.891776 -166.148300
v -131.115387 -39.809883 -44.815178
v -111.236290 15.808647 -172.529541
v -124.740143 10.580804 -165.482681
v 127.399223 41.265457 -203.054016
v -130.889648 18.955799 -176.340668
v -128.775879 -45.110649 -47.416870
v 134.946228 30.082436 -236.862885
v -134.207825 7.006369 -176.035538
v 133.282227 -42.962624 -232.445511
v 131.045013 7.894716 -121.526093
v 129.691681 -22.488825 -45.352341
v 46.688705 15.465479 -172.417603
v -120.740074 -40.248360 -42.675812
v -66.209892 -15.215473 -100.091904
v 10.975170 -48.293335 -147.479202
v -123.451157 41.757324 -235.344452
v 121.324921 36.409950 -244.749573
v -131.423645 -17.892513 -244.392044
v -135.157379 -28.807026 -55.126312
v 117.824783 -48.627930 -229.862717
v -118.160362 10.416463 -121.926048
v -122.168846 -15.880412 -247.236862
v -127.957985 29.175255 -245.868668
v -132.985168 -43.270981 -235.171402
v 122.269295 -17.376463 -92.255859
v 135.808685 -27.577291 -82.068207
v -136.000671 11.413108 -208.085968
v -127.997353 37.591377 -243.686935
v -125.247917 -47.821632 -57.558502
v 120.692230 13.431274 -170.313293
v -119.555382 -17.416798 -52.537277
v 122.427727 9.598036 -115.156380
v 127.478195 37.179512 -178.276062
v 133.883850 3.914228 -148.789612
v -126.803650 41.757057 -211.699326
v 119.035507 -18.750177 -48.651199
v 132.128174 -20.690191 -78.875565
v -19.557981 9.992142 -148.373230
v -128.497894 -18.671741 -87.450027
v -5.381685 -48.180710 -55.283890
# 129 positions

vt 0.509692 0.201831
vt 0.518042 0.235405
vt 0.522862 0.181781
vt 0.486452 0.133782
vt 0.439086 0.164447
vt 0.501700 0.165078
vt 0.482032 0.223451
vt 0.304612 0.199483
vt 0.293342 0.223813
vt 0.027683 0.121602
vt 0.172645 0.170650
vt 0.255259 0.114157
vt 0.035974 0.373768
vt 0.225551 0.381363
vt 0.169386 0.347353
vt 0.293365 0.303268
vt 0.303618 0.335389
vt 0.491100 0.334177
vt 0.464951 0.349402
vt 0.469074 0.425376
vt 0.489842 0.492604
vt 0.494597 0.449230
vt 0.276605 0.505318
vt 0.249193 0.460201
vt 0.328807 0.405135
vt 0.065833 0.407283
vt 0.473573 0.254766
vt 0.258145 0.244701
vt 0.028485 0.292022
vt 0.591799 0.293256
vt 0.640472 0.147767
vt 0.638423 0.087071
vt 0.629468 0.189916
vt 0.644020 0.243122
vt 0.649045 0.199531
vt 0.493069 0.234165
vt 0.500368 0.217168
vt 0.502506 0.255590
vt 0.497598 0.301392
vt 0.623859 0.252099
vt 0.485836 0.402461
vt 0.661782 0.010000
vt 0.575997 0.024917
vt 0.624292 0.036669
vt 0.670429 0.029447
vt 0.681189 0.029050
vt 0.677820 0.012786
vt 0.499504 0.508940
vt 0.506419 0.493432
vt 0.300275 0.526421
vt 0.839433 0.971518
vt 0.834304 0.989587
vt 0.922470 0.984712
vt 0.931931 0.785709
vt 0.938680 0.984843
vt 0.689920 0.095196
vt 0.507172 0.424099
vt 0.493979 0.393916
vt 0.481522 0.380019
vt 0.502377 0.360959
vt 0.506764 0.391630
vt 0.663673 0.144015
vt 0.680949 0.122788
vt 0.657477 0.169484
vt 0.859919 0.714668
vt 0.806978 0.727440
vt 0.770765 0.879978
vt 0.608574 0.722369
vt 0.633077 0.981458
vt 0.773442 0.973889
vt 0.781565 0.523368
vt 0.764324 0.530460
vt 0.788932 0.511013
vt 0.774551 0.500379
vt 0.038211 0.031651
vt 0.023188 0.054420
vt 0.209104 0.029785
vt 0.010124 0.066749
vt 0.029329 0.059538
vt 0.012757 0.046117
vt 0.686897 0.298165
vt 0.713656 0.277602
vt 0.705462 0.137256
vt 0.678311 0.134835
vt 0.605017 0.498390
vt 0.441645 0.523129
vt 0.438319 0.750643
vt 0.266197 0.010000
vt 0.290262 0.052970
vt 0.441607 0.975216
vt 0.490704 0.014590
vt 0.474988 0.031024
vt 0.481171 0.046877
vt 0.496217 0.034612
vt 0.500654 0.045784
vt 0.096657 0.188634
vt 0.383408 0.188712
vt 0.032274 0.243114
vt 0.025681 0.223080
vt 0.487617 0.192900
vt 0.015179 0.252734
vt 0.014720 0.230702
vt 0.032000 0.204303
vt 0.500187 0.103347
vt 0.556529 0.241253
vt 0.589811 0.373025
vt 0.566092 0.375774
vt 0.559710 0.391357
vt 0.571420 0.394512
vt 0.589233 0.388008
vt 0.547487 0.374486
vt 0.528316 0.185071
vt 0.531431 0.047316
vt 0.772271 0.990000
vt 0.554235 0.059421
vt 0.528775 0.034130
vt 0.859402 0.516684
vt 0.751362 0.438064
vt 0.812417 0.489355
vt 0.824684 0.437333
vt 0.014822 0.508609
vt 0.034650 0.520692
vt 0.031161 0.502209
vt 0.936000 0.518045
vt 0.928506 0.503060
vt 0.867053 0.494541
vt 0.938685 0.494900
vt 0.924404 0.486651
vt 0.755208 0.492163
vt 0.776814 0.373874
vt 0.813019 0.393433
vt 0.794138 0.367642
vt 0.827825 0.494757
vt 0.844273 0.429476
vt 0.021359 0.440728
vt 0.012919 0.376124
vt 0.029642 0.346640
vt 0.024049 0.394191
vt 0.840171 0.393956
vt 0.817356 0.378780
vt 0.017966 0.403793
vt 0.010000 0.350478
vt 0.789008 0.350790
vt 0.011141 0.332627
vt 0.781044 0.321210
vt 0.766773 0.278280
vt 0.794887 0.272226
vt 0.789294 0.252002
vt 0.747377 0.241790
vt 0.757622 0.227580
vt 0.015350 0.189381
vt 0.029592 0.172458
vt 0.010780 0.146070
vt 0.012863 0.090540
vt 0.027204 0.089736
vt 0.044328 0.098528
vt 0.270963 0.085919
vt 0.479932 0.099365
vt 0.494976 0.085071
vt 0.608381 0.373824
vt 0.606908 0.392800
vt 0.594340 0.408315
vt 0.485278 0.067384
vt 0.048451 0.076569
vt 0.025618 0.075283
vt 0.735860 0.191129
vt 0.750729 0.186018
vt 0.743328 0.134236
vt 0.722849 0.129996
vt 0.678312 0.466384
vt 0.687953 0.487644
vt 0.799278 0.504948
vt 0.795075 0.527601
vt 0.787546 0.736101
vt 0.788698 0.972163
vt 0.785122 0.984707
# 176 texture coordinates

vn -0.000517 0.260408 -0.965499
vn 0.000125 0.011462 -0.999934
vn 0.378243 -0.759526 0.529200
vn 0.673783 -0.073543 -0.735261
vn -0.549403 0.631690 0.546922
vn 0.952482 0.234745 0.194094
vn 0.001347 0.661224 0.750187
vn 0.926775 0.301541 0.223965
vn 0.162060 0.002745 -0.986777
vn -0.806256 0.119873 0.579294
vn 0.669800 0.688488 0.278122
vn 0.005229 0.999986 -0.001020
vn 0.000706 -0.094646 0.995511
vn -0.723440 0.688122 0.055877
vn -0.607579 0.564253 0.558986
vn -0.527336 0.848902 0.035796
vn -0.589376 -0.584945 -0.557203
vn 0.700222 0.416979 0.579497
vn -0.941104 -0.338114 0.001289
vn -0.995628 -0.064757 -0.067312
vn -0.970090 0.228106 0.083027
vn -0.001540 -0.703208 -0.710982
vn -0.606692 0.247869 0.755305
vn 0.875076 -0.250711 0.413988
vn -0.847544 -0.511404 0.141896
vn 0.281891 0.957758 0.056893
vn -0.008957 0.995762 0.091534
vn 0.252101 -0.313052 0.915666
vn 0.000281 0.949222 0.314607
vn -0.093466 0.403222 0.910317
vn 0.538204 -0.601765 -0.590098
vn -0.453414 0.655802 0.603606
vn 0.641986 -0.762301 0.082169
vn 0.003296 -0.745347 0.666669
vn -0.230830 -0.947260 -0.222298
vn -0.041293 0.578698 0.814496
vn 0.146685 -0.932574 -0.329832
vn 0.941295 0.172141 0.290398
vn -0.971941 0.235116 -0.007169
vn -0.094894 0.995459 -0.007503
vn 0.040680 0.223411 0.973875
vn 0.027964 0.952439 0.303444
vn 0.415656 -0.909522 -0.000108
vn 0.002268 0.995576 0.093936
vn 0.105707 -0.375902 -0.920610
vn 0.955452 0.260496 0.138760
vn -0.002869 0.520771 0.853691
vn -0.146783 0.921295 0.360098
vn -0.006821 0.961070 0.276221
vn 0.925070 0.379335 0.018744
vn 0.982727 0.174791 0.060802
vn 0.001867 0.942093 -0.335347
vn 0.082801 0.269890 0.959324
vn -0.002805 0.567373 0.823456
vn -0.110322 -0.522822 -0.845273
vn 0.132764 0.990292 0.041189
vn -0.951508 0.001900 -0.307618
vn 0.698377 0.496281 0.515726
vn 0.582654 0.803003 0.125300
vn 0.629464 0.705460 -0.325731
vn 0.559534 0.009666 0.828751
vn 0.062815 -0.988623 0.136668
vn 0.876265 -0.013673 -0.481636
vn 0.013394 0.798178 0.602272
vn -0.002717 0.360373 0.932804
vn 0.082824 0.488153 0.868819
vn 0.568260 0.217258 -0.793650
vn -0.938652 0.239799 0.247849
vn -0.819088 0.573312 0.020182
vn 0.001875 0.993213 0.116294
vn -0.025373 0.999506 0.018529
vn -0.350502 -0.936562 -0.000435
vn -0.559322 0.821057 0.114126
vn 0.437007 0.681332 0.587207
vn -0.673950 0.530855 0.513794
vn -0.932106 0.203320 -0.299731
vn -0.003774 -0.974985 -0.222237
vn -0.175740 0.122884 0.976737
vn 0.001876 0.428783 0.903406
vn 0.139314 0.949471 -0.281241
vn -0.946778 0.181854 0.265596
vn 0.603939 0.253054 0.755792
vn -0.000874 -0.154588 -0.987979
vn -0.140564 0.712682 0.687260
vn -0.043362 -0.891905 0.450139
vn 0.982874 -0.184009 0.009956
vn 0.999678 -0.002124 -0.025299
vn -0.606456 0.774847 -0.178391
vn -0.002374 0.935377 0.353645
vn -0.578751 -0.266412 0.770761
vn -0.028948 0.527969 0.848770
vn -0.215038 0.926626 0.308420
vn 0.281708 0.959449 0.009960
vn -0.529205 0.303966 0.792178
vn -0.381712 -0.780393 0.495260
vn 0.966208 0.113040 -0.231654
vn -0.922621 0.308425 0.231615
vn 0.852477 -0.517880 -0.071301
vn 0.661208 0.745229 0.086237
vn 0.448650 0.632093 0.631800
vn -0.002967 0.501667 0.865056
vn -0.080751 -0.397504 0.914040
vn 0.004884 0.869708 0.493542
vn 0.002294 -0.999997 0.000701
vn -0.132012 0.976821 -0.168504
vn 0.084966 0.583045 -0.807985
vn -0.674899 -0.038923 -0.736883
vn -0.967257 0.208695 0.144431
vn 0.143703 -0.989369 -0.022331
vn -0.081331 0.978668 0.188663
vn -0.098744 -0.022493 -0.994859
vn -0.501413 0.090102 -0.860504
vn -0.871248 -0.467348 -0.150041
vn 0.096590 0.987930 0.121096
vn 0.954147 0.293494 0.058864
vn -0.997235 0.073678 0.009742
vn -0.351020 0.638447 -0.684961
vn -0.209501 -0.975901 0.061040
vn 0.204398 0.732143 0.649760
vn -0.080745 0.972535 0.218300
vn 0.131697 0.898395 0.418978
vn 0.264734 0.576871 0.772745
vn 0.864281 0.501877 0.033735
vn -0.291380 0.956587 0.006252
vn 0.048978 0.873175 0.484940
vn 0.607978 0.791451 0.062993
vn 0.000274 0.999766 0.021622
vn -0.365328 0.922224 0.126643
vn -0.000790 -0.990737 0.135795
# 129 normals

usemtl default
f 75/1/75 68/2/68 21/3/21
f 40/4/40 27/5/27 128/6/128
f 36/7/36 79/8/79 54/9/54
f 26/10/26 70/11/70 44/12/44
f 53/13/53 47/14/47 101/15/101
f 127/16/127 89/17/89 92/18/92
f 101/15/101 47/14/47 91/19/91
f 70/11/70 27/5/27 44/12/44
f 71/20/71 105/21/105 124/22/124
f 71/20/71 52/23/52 105/21/105
f 52/23/52 71/20/71 12/24/12
f 29/25/29 12/24/12 71/20/71
f 29/25/29 42/26/42 12/24/12
f 127/16/127 110/27/110 49/28/49
f 92/18/92 110/27/110 127/16/127
f 49/28/49 56/29/56 127/16/127
f 21/30/21 97/31/97 116/32/116
f 21/30/21 39/33/39 97/31/97
f 39/33/39 14/34/14 16/35/16
f 36/7/36 5/36/5 23/37/23
f 110/27/110 5/36/5 36/7/36
f 14/38/14 5/36/5 110/27/110
f 68/2/68 5/36/5 14/38/14
f 68/2/68 23/37/23 5/36/5
f 16/39/16 14/38/14 110/27/110
f 68/2/68 75/1/75 23/37/23
f 39/33/39 68/40/68 14/34/14
f 21/30/21 68/40/68 39/33/39
f 92/18/92 16/39/16 110/27/110
f 71/20/71 48/41/48 29/25/29
f 29/25/29 48/41/48 47/14/47
f 112/42/112 107/43/107 57/44/57
f 57/44/57 76/45/76 112/42/112
f 57/44/57 116/32/116 76/45/76
f 76/45/76 88/46/88 117/47/117
f 112/42/112 76/45/76 117/47/117
f 117/48/117 88/49/88 105/21/105
f 117/48/117 105/21/105 52/23/52
f 1/50/1 117/48/117 52/23/52
f 111/51/111 107/52/107 112/53/112
f 1/54/1 112/53/112 117/55/117
f 105/21/105 88/49/88 124/22/124
f 76/45/76 69/56/69 88/46/88
f 88/49/88 69/57/69 124/22/124
f 116/32/116 69/56/69 76/45/76
f 48/41/48 15/58/15 30/59/30
f 30/59/30 15/58/15 94/60/94
f 94/60/94 15/58/15 81/61/81
f 97/31/97 94/62/94 81/63/81
f 116/32/116 81/63/81 69/56/69
f 81/61/81 15/58/15 69/57/69
f 124/22/124 48/41/48 71/20/71
f 124/22/124 69/57/69 48/41/48
f 69/57/69 15/58/15 48/41/48
f 48/41/48 30/59/30 47/14/47
f 91/19/91 47/14/47 30/59/30
f 30/59/30 94/60/94 91/19/91
f 91/19/91 92/18/92 89/17/89
f 94/60/94 92/18/92 91/19/91
f 39/33/39 16/35/16 97/31/97
f 92/64/92 97/31/97 16/35/16
f 94/62/94 97/31/97 92/64/92
f 116/32/116 97/31/97 81/63/81
f 1/54/1 111/51/111 112/53/112
f 2/65/2 111/51/111 1/54/1
f 83/66/83 111/51/111 2/65/2
f 77/67/77 104/68/104 72/69/72
f 35/70/35 77/67/77 72/69/72
f 37/71/37 109/72/109 77/67/77
f 31/73/31 98/74/98 37/71/37
f 62/75/62 3/76/3 34/77/34
f 3/76/3 24/78/24 28/79/28
f 33/80/33 3/76/3 62/75/62
f 33/80/33 24/78/24 3/76/3
f 43/81/43 86/82/86 33/83/33
f 43/81/43 33/83/33 62/84/62
f 43/85/43 62/86/62 104/68/104
f 104/68/104 62/86/62 129/87/129
f 34/77/34 3/76/3 28/79/28
f 62/75/62 34/77/34 129/88/129
f 28/79/28 13/89/13 34/77/34
f 37/71/37 98/74/98 109/72/109
f 98/74/98 43/85/43 109/72/109
f 109/72/109 43/85/43 104/68/104
f 109/72/109 104/68/104 77/67/77
f 72/69/72 104/68/104 118/90/118
f 104/68/104 129/87/129 118/90/118
f 118/91/118 129/88/129 85/92/85
f 129/88/129 34/77/34 85/92/85
f 85/92/85 34/77/34 102/93/102
f 34/77/34 13/89/13 102/93/102
f 95/94/95 85/92/85 102/93/102
f 102/93/102 90/95/90 95/94/95
f 75/1/75 21/3/21 128/6/128
f 64/96/64 103/97/103 70/11/70
f 64/96/64 79/8/79 103/97/103
f 121/98/121 49/28/49 54/9/54
f 121/98/121 54/9/54 66/99/66
f 103/97/103 27/5/27 70/11/70
f 84/100/84 128/6/128 27/5/27
f 103/97/103 84/100/84 27/5/27
f 103/97/103 79/8/79 84/100/84
f 101/15/101 91/19/91 89/17/89
f 29/25/29 47/14/47 42/26/42
f 56/29/56 49/28/49 121/98/121
f 99/101/99 121/98/121 58/102/58
f 58/102/58 121/98/121 66/99/66
f 65/103/65 54/9/54 79/8/79
f 66/99/66 54/9/54 65/103/65
f 65/103/65 79/8/79 64/96/64
f 27/5/27 40/4/40 44/12/44
f 128/6/128 73/104/73 40/4/40
f 128/6/128 21/3/21 73/104/73
f 19/105/19 108/106/108 21/30/21
f 25/107/25 95/108/95 90/109/90
f 118/91/118 85/92/85 95/94/95
f 90/109/90 10/110/10 25/107/25
f 25/107/25 10/110/10 108/106/108
f 118/111/118 95/108/95 25/107/25
f 72/112/72 118/111/118 25/107/25
f 72/112/72 25/107/25 19/105/19
f 25/107/25 108/106/108 19/105/19
f 113/113/113 72/112/72 19/105/19
f 35/70/35 72/69/72 113/114/113
f 113/113/113 19/105/19 20/115/20
f 17/116/17 113/113/113 107/43/107
f 113/113/113 57/44/57 107/43/107
f 113/113/113 20/115/20 57/44/57
f 20/115/20 116/32/116 57/44/57
f 20/115/20 19/105/19 21/30/21
f 20/115/20 21/30/21 116/32/116
f 75/1/75 128/6/128 84/100/84
f 75/1/75 84/100/84 23/37/23
f 36/7/36 23/37/23 84/100/84
f 79/8/79 36/7/36 84/100/84
f 49/28/49 110/27/110 36/7/36
f 49/28/49 36/7/36 54/9/54
f 9/117/9 83/66/83 2/65/2
f 87/118/87 96/119/96 50/120/50
f 60/121/60 106/122/106 80/123/80
f 9/117/9 2/65/2 1/54/1
f 106/124/106 9/117/9 1/54/1
f 67/125/67 9/117/9 106/124/106
f 63/126/63 9/117/9 67/125/67
f 67/125/67 106/124/106 60/127/60
f 63/126/63 67/125/67 96/128/96
f 96/128/96 67/125/67 60/127/60
f 63/129/63 96/119/96 87/118/87
f 86/82/86 87/118/87 46/130/46
f 87/118/87 38/131/38 46/130/46
f 46/130/46 38/131/38 18/132/18
f 87/118/87 50/120/50 38/131/38
f 96/119/96 60/133/60 50/120/50
f 50/120/50 60/133/60 93/134/93
f 60/121/60 80/123/80 93/135/93
f 106/122/106 52/23/52 80/123/80
f 1/50/1 52/23/52 106/122/106
f 82/136/82 53/13/53 119/137/119
f 82/136/82 122/138/122 53/13/53
f 38/131/38 11/139/11 82/140/82
f 82/136/82 11/141/11 122/138/122
f 122/138/122 47/14/47 53/13/53
f 11/141/11 42/26/42 122/138/122
f 93/135/93 42/26/42 11/141/11
f 12/24/12 42/26/42 93/135/93
f 52/23/52 12/24/12 93/135/93
f 80/123/80 52/23/52 93/135/93
f 11/139/11 50/120/50 93/134/93
f 38/131/38 50/120/50 11/139/11
f 18/132/18 38/131/38 82/140/82
f 18/142/18 82/136/82 119/137/119
f 46/130/46 18/132/18 59/143/59
f 119/137/119 59/144/59 18/142/18
f 46/130/46 59/143/59 123/145/123
f 86/82/86 46/130/46 51/146/51
f 46/130/46 123/145/123 51/146/51
f 123/145/123 59/143/59 99/147/99
f 59/144/59 56/29/56 99/101/99
f 59/144/59 119/137/119 56/29/56
f 56/29/56 89/17/89 127/16/127
f 119/137/119 89/17/89 56/29/56
f 101/15/101 119/137/119 53/13/53
f 122/138/122 42/26/42 47/14/47
f 101/15/101 89/17/89 119/137/119
f 56/29/56 121/98/121 99/101/99
f 123/145/123 99/147/99 51/146/51
f 58/148/58 51/146/51 99/147/99
f 6/149/6 51/146/51 58/148/58
f 6/149/6 58/148/58 74/150/74
f 74/151/74 58/102/58 66/99/66
f 66/99/66 65/103/65 74/151/74
f 64/96/64 74/151/74 65/103/65
f 74/151/74 114/152/114 126/153/126
f 74/151/74 64/96/64 114/152/114
f 64/96/64 70/11/70 114/152/114
f 114/152/114 26/10/26 126/153/126
f 26/10/26 114/152/114 70/11/70
f 126/153/126 26/10/26 8/154/8
f 26/10/26 100/155/100 8/154/8
f 26/10/26 125/156/125 100/155/100
f 26/10/26 44/12/44 125/156/125
f 44/12/44 7/157/7 125/156/125
f 44/12/44 40/4/40 120/158/120
f 7/157/7 120/158/120 32/159/32
f 44/12/44 120/158/120 7/157/7
f 40/4/40 73/104/73 120/158/120
f 108/106/108 73/160/73 21/30/21
f 120/158/120 73/104/73 32/159/32
f 108/106/108 32/161/32 73/160/73
f 108/106/108 10/110/10 32/161/32
f 78/162/78 32/161/32 10/110/10
f 78/162/78 10/110/10 90/109/90
f 7/157/7 32/159/32 78/163/78
f 102/93/102 78/163/78 90/95/90
f 13/89/13 78/163/78 102/93/102
f 7/157/7 78/163/78 13/89/13
f 41/164/41 7/157/7 13/89/13
f 125/156/125 7/157/7 41/164/41
f 28/79/28 41/164/41 13/89/13
f 100/155/100 125/156/125 41/164/41
f 61/165/61 41/164/41 28/79/28
f 61/165/61 100/155/100 41/164/41
f 61/165/61 8/154/8 100/155/100
f 24/78/24 61/165/61 28/79/28
f 24/78/24 8/154/8 61/165/61
f 115/166/115 126/167/126 8/168/8
f 33/83/33 86/82/86 24/169/24
f 24/169/24 86/82/86 8/168/8
f 86/82/86 115/166/115 8/168/8
f 115/166/115 74/150/74 126/167/126
f 6/149/6 74/150/74 115/166/115
f 86/82/86 6/149/6 115/166/115
f 86/82/86 51/146/51 6/149/6
f 43/81/43 98/170/98 86/82/86
f 86/82/86 98/170/98 87/118/87
f 98/170/98 63/129/63 87/118/87
f 4/171/4 63/129/63 98/170/98
f 31/73/31 4/172/4 98/74/98
f 4/172/4 9/117/9 63/126/63
f 31/73/31 45/173/45 4/172/4
f 45/173/45 31/73/31 37/71/37
f 4/172/4 45/173/45 9/117/9
f 45/173/45 83/66/83 9/117/9
f 45/173/45 37/71/37 22/174/22
f 45/173/45 22/174/22 83/66/83
f 22/174/22 37/71/37 77/67/77
f 83/66/83 22/174/22 55/175/55
f 22/174/22 77/67/77 55/175/55
f 83/66/83 55/175/55 111/51/111
f 111/51/111 55/175/55 107/52/107
f 55/175/55 77/67/77 35/70/35
f 55/175/55 17/176/17 107/52/107
f 17/176/17 35/70/35 113/114/113
f 55/175/55 35/70/35 17/176/17

# 254 faces
