# Blender 5.2.0 LTS
# www.blender.org
mtllib toilet.mtl
o Object_4
v 0.000000 0.302567 0.153778
v 0.000000 0.221198 0.086083
v 0.000000 0.221198 0.086083
v 0.000000 0.383952 0.170775
v 0.000000 0.383952 0.170775
v 0.000000 -0.001956 0.104464
v -0.061080 0.353337 -0.426923
v -0.061080 0.353337 -0.426923
v -0.082567 0.194371 -0.075120
v -0.082567 0.194371 -0.075120
v -0.082567 0.194371 -0.075120
v -0.082567 0.194371 -0.075120
v -0.081321 0.302567 0.127538
v -0.136342 0.302567 0.032583
v -0.130652 0.302567 -0.086721
v -0.070777 0.306306 -0.224918
v -0.070777 0.306306 -0.224918
v -0.070777 0.252414 -0.169629
v -0.070777 0.252414 -0.169629
v -0.104536 0.253793 -0.073657
v -0.053366 0.221198 0.067533
v -0.053366 0.221198 0.067533
v -0.103854 -0.001956 0.011395
v -0.103854 -0.001956 -0.288917
v -0.155753 0.383956 0.033204
v -0.155753 0.383956 0.033204
v -0.068863 0.353337 -0.373106
v -0.068863 0.353337 -0.373106
v -0.143739 0.353337 -0.092956
v -0.143739 0.353337 -0.092956
v -0.092888 0.383953 0.141425
v -0.092888 0.383953 0.141425
v -0.093573 0.353337 -0.147852
v -0.093573 0.353337 -0.147852
v -0.061944 -0.001956 0.083569
v -0.101587 0.033212 -0.287965
v -0.101587 0.033212 -0.287965
v -0.103854 0.033212 -0.091727
v -0.103854 0.033212 -0.091727
v -0.103854 0.033212 -0.091727
v -0.016864 0.246753 -0.169629
v -0.016864 0.246753 -0.169629
v -0.016864 0.300645 -0.224918
v -0.016864 0.300645 -0.224918
v -0.016864 0.033212 -0.177062
v -0.016864 0.033212 -0.177062
v -0.016864 0.033212 -0.177062
v -0.016864 0.033212 -0.091727
v -0.016864 0.033212 -0.091727
v -0.111901 0.383947 -0.287947
v -0.111901 0.383947 -0.287947
v -0.116201 0.353337 -0.147852
v -0.116201 0.353337 -0.147852
v -0.052808 -0.001956 -0.368193
v -0.052808 -0.001956 -0.368193
v -0.088027 -0.001956 -0.336415
v -0.086058 0.033212 -0.334571
v -0.086058 0.033212 -0.334571
v -0.026856 0.308428 -0.373732
v -0.026856 0.308428 -0.373732
v -0.104242 0.353337 -0.385505
v -0.104242 0.353337 -0.385505
v -0.048732 0.326177 -0.403101
v -0.048732 0.326177 -0.403101
v -0.058321 0.309177 -0.281349
v -0.058321 0.309177 -0.281349
v -0.061900 0.325820 -0.357972
v -0.061900 0.325820 -0.357972
v -0.061900 0.325820 -0.357972
v -0.116201 0.383956 -0.150746
v -0.116201 0.383956 -0.150746
v -0.143739 0.383958 -0.094480
v -0.143739 0.383958 -0.094480
v -0.036156 0.144492 -0.153103
v -0.051395 0.194675 -0.185631
v -0.019294 0.148128 -0.184033
v -0.019294 0.148128 -0.184033
v -0.051301 0.284690 -0.308912
v -0.019247 0.232311 -0.308524
v -0.019247 0.232311 -0.308524
v -0.051312 0.261393 -0.358646
v -0.035858 0.190154 -0.416719
v -0.051379 0.188045 -0.380862
v -0.035991 0.114440 -0.407002
v -0.051392 0.123484 -0.372112
v -0.019236 0.092905 -0.312565
v -0.019236 0.092905 -0.312565
v -0.051456 0.033212 -0.365665
v -0.051456 0.033212 -0.365665
v -0.051456 0.033212 -0.365665
v -0.051456 0.033212 -0.365665
v -0.050999 0.063669 -0.345701
v -0.050429 0.067659 -0.232192
v -0.018157 0.185625 -0.335690
v -0.018157 0.185625 -0.335690
v -0.050856 0.033258 -0.204638
v -0.050856 0.033258 -0.204638
v -0.019512 0.230455 -0.325538
v -0.019512 0.230455 -0.325538
v -0.036864 0.308060 -0.284928
v -0.036864 0.308060 -0.284928
v -0.037821 0.196729 -0.074542
v -0.037821 0.196729 -0.074542
v -0.037821 0.196729 -0.074542
v -0.049819 0.166254 -0.077859
v -0.049819 0.166254 -0.077859
v -0.019294 0.136199 -0.151874
v -0.019294 0.136199 -0.151874
v -0.019296 0.124326 -0.082622
v -0.019296 0.124326 -0.082622
v -0.019296 0.124326 -0.082622
v -0.018407 0.089770 -0.221324
v -0.018407 0.089770 -0.221324
v -0.029893 0.033212 -0.180061
v -0.029893 0.033212 -0.180061
v -0.089473 0.221198 0.005353
v -0.089473 0.221198 0.005353
v -0.033695 0.084814 -0.220193
v -0.036120 0.153194 -0.176604
v -0.033442 0.068606 -0.188316
v -0.018341 0.072123 -0.186242
v -0.018341 0.072123 -0.186242
v -0.111901 0.400111 -0.302828
v -0.111901 0.400111 -0.302828
v -0.061080 0.400111 -0.426923
v -0.061080 0.400111 -0.426923
v -0.103812 0.400111 -0.386734
v -0.103812 0.400111 -0.386734
v -0.095939 0.023946 -0.231738
v -0.091311 0.067684 -0.229821
v -0.091311 0.067684 -0.229821
v -0.085693 0.023946 -0.207002
v -0.060957 0.023946 -0.217248
v -0.071203 0.023946 -0.241984
v -0.071203 0.023946 -0.241984
v -0.073119 0.067684 -0.237356
v -0.073119 0.067684 -0.237356
v -0.083776 0.067684 -0.211629
v -0.083776 0.067684 -0.211629
v -0.065584 0.067684 -0.219165
v 0.061080 0.353337 -0.426923
v 0.061080 0.353337 -0.426923
v 0.061080 0.353337 -0.426923
v 0.048732 0.326177 -0.403101
v 0.048732 0.326177 -0.403101
v 0.048732 0.326177 -0.403101
v 0.035858 0.190154 -0.416719
v 0.035991 0.114440 -0.407002
v 0.052808 -0.001956 -0.368193
v 0.051456 0.033212 -0.365665
v 0.051456 0.033212 -0.365665
v 0.051456 0.033212 -0.365665
v 0.103812 0.400111 -0.386734
v 0.103812 0.400111 -0.386734
v 0.111901 0.400111 -0.302828
v 0.111901 0.400111 -0.302828
v 0.143739 0.383958 -0.094480
v 0.143739 0.383958 -0.094480
v 0.092888 0.383953 0.141425
v 0.092888 0.383953 0.141425
v 0.082567 0.194371 -0.075120
v 0.082567 0.194371 -0.075120
v 0.082567 0.194371 -0.075120
v 0.082567 0.194371 -0.075120
v 0.081321 0.302567 0.127538
v 0.136342 0.302567 0.032583
v 0.130652 0.302567 -0.086721
v 0.070777 0.306306 -0.224918
v 0.070777 0.306306 -0.224918
v 0.070777 0.252414 -0.169629
v 0.070777 0.252414 -0.169629
v 0.089473 0.221198 0.005353
v 0.089473 0.221198 0.005353
v 0.104536 0.253793 -0.073657
v 0.103854 -0.001956 0.011395
v 0.103854 -0.001956 -0.288917
v 0.155753 0.383956 0.033204
v 0.155753 0.383956 0.033204
v 0.068863 0.353337 -0.373106
v 0.068863 0.353337 -0.373106
v 0.143739 0.353337 -0.092956
v 0.143739 0.353337 -0.092956
v 0.093573 0.353337 -0.147852
v 0.093573 0.353337 -0.147852
v 0.061944 -0.001956 0.083569
v 0.101587 0.033212 -0.287965
v 0.101587 0.033212 -0.287965
v 0.103854 0.033212 -0.091727
v 0.103854 0.033212 -0.091727
v 0.103854 0.033212 -0.091727
v 0.016864 0.246753 -0.169629
v 0.016864 0.246753 -0.169629
v 0.016864 0.300645 -0.224918
v 0.016864 0.300645 -0.224918
v 0.016864 0.033212 -0.177062
v 0.016864 0.033212 -0.177062
v 0.016864 0.033212 -0.177062
v 0.016864 0.033212 -0.091727
v 0.016864 0.033212 -0.091727
v 0.111901 0.383947 -0.287947
v 0.111901 0.383947 -0.287947
v 0.116201 0.353337 -0.147852
v 0.116201 0.353337 -0.147852
v 0.088027 -0.001956 -0.336415
v 0.086058 0.033212 -0.334571
v 0.086058 0.033212 -0.334571
v 0.026856 0.308428 -0.373732
v 0.026856 0.308428 -0.373732
v 0.104242 0.353337 -0.385505
v 0.104242 0.353337 -0.385505
v 0.058321 0.309177 -0.281349
v 0.058321 0.309177 -0.281349
v 0.061900 0.325820 -0.357972
v 0.061900 0.325820 -0.357972
v 0.061900 0.325820 -0.357972
v 0.116201 0.383956 -0.150746
v 0.116201 0.383956 -0.150746
v 0.036156 0.144492 -0.153103
v 0.051395 0.194675 -0.185631
v 0.019294 0.148128 -0.184033
v 0.019294 0.148128 -0.184033
v 0.051301 0.284690 -0.308912
v 0.019247 0.232311 -0.308524
v 0.019247 0.232311 -0.308524
v 0.051312 0.261393 -0.358646
v 0.051379 0.188045 -0.380862
v 0.051392 0.123484 -0.372112
v 0.019236 0.092905 -0.312565
v 0.019236 0.092905 -0.312565
v 0.050999 0.063669 -0.345701
v 0.050429 0.067659 -0.232192
v 0.018157 0.185625 -0.335690
v 0.018157 0.185625 -0.335690
v 0.050856 0.033258 -0.204638
v 0.050856 0.033258 -0.204638
v 0.019512 0.230455 -0.325538
v 0.019512 0.230455 -0.325538
v 0.036864 0.308060 -0.284928
v 0.036864 0.308060 -0.284928
v 0.037821 0.196729 -0.074542
v 0.037821 0.196729 -0.074542
v 0.037821 0.196729 -0.074542
v 0.049819 0.166254 -0.077859
v 0.049819 0.166254 -0.077859
v 0.019294 0.136199 -0.151874
v 0.019294 0.136199 -0.151874
v 0.019296 0.124326 -0.082622
v 0.019296 0.124326 -0.082622
v 0.019296 0.124326 -0.082622
v 0.018407 0.089770 -0.221324
v 0.018407 0.089770 -0.221324
v 0.029893 0.033212 -0.180061
v 0.029893 0.033212 -0.180061
v 0.053366 0.221198 0.067533
v 0.053366 0.221198 0.067533
v 0.033695 0.084814 -0.220193
v 0.036120 0.153194 -0.176604
v 0.033442 0.068606 -0.188316
v 0.018341 0.072123 -0.186242
v 0.018341 0.072123 -0.186242
v 0.061080 0.400111 -0.426923
v 0.061080 0.400111 -0.426923
v 0.061080 0.400111 -0.426923
v 0.137855 0.430632 0.033204
v 0.102848 0.432379 -0.150746
v 0.108528 0.432668 -0.194656
v 0.108528 0.432668 -0.194656
v 0.108528 0.432668 -0.194656
v 0.082214 0.427132 0.141425
v 0.127222 0.431216 -0.094480
v -0.000000 0.413731 0.167279
v -0.108528 0.432668 -0.194656
v -0.108528 0.432668 -0.194656
v -0.108528 0.432668 -0.194656
v -0.127222 0.431216 -0.094480
v -0.102848 0.432379 -0.150746
v -0.137855 0.430632 0.033204
v -0.082214 0.427132 0.141425
v 0.095939 0.023946 -0.231738
v 0.091311 0.067684 -0.229821
v 0.091311 0.067684 -0.229821
v 0.085693 0.023946 -0.207002
v 0.060957 0.023946 -0.217248
v 0.071203 0.023946 -0.241984
v 0.071203 0.023946 -0.241984
v 0.073119 0.067684 -0.237356
v 0.073119 0.067684 -0.237356
v 0.083776 0.067684 -0.211629
v 0.083776 0.067684 -0.211629
v 0.065584 0.067684 -0.219165
v -0.114908 0.383954 -0.195821
v -0.114908 0.383954 -0.195821
v -0.114908 0.383954 -0.195821
v -0.114908 0.383954 -0.195821
v 0.114908 0.383954 -0.195821
v 0.114908 0.383954 -0.195821
v 0.114908 0.383954 -0.195821
v 0.114908 0.383954 -0.195821
v -0.104294 0.403216 -0.300182
v -0.104294 0.403216 -0.300182
v -0.134596 0.403216 -0.458022
v -0.134596 0.403216 -0.458022
v -0.134596 0.403216 -0.458022
v 0.104294 0.403216 -0.300182
v 0.104294 0.403216 -0.300182
v 0.134596 0.403216 -0.458022
v 0.134596 0.403216 -0.458022
v 0.134596 0.403216 -0.458022
v 0.067298 0.403216 -0.297788
v 0.067298 0.403216 -0.297788
v -0.134596 0.403216 -0.332085
v -0.134596 0.403216 -0.332085
v 0.134596 0.403216 -0.332085
v 0.134596 0.403216 -0.332085
v -0.067298 0.403216 -0.297788
v -0.067298 0.403216 -0.297788
v -0.145397 0.664896 -0.310419
v -0.145397 0.664896 -0.310419
v -0.169591 0.664896 -0.469266
v -0.169591 0.664896 -0.469266
v -0.169591 0.664896 -0.469266
v 0.145397 0.664896 -0.310419
v 0.145397 0.664896 -0.310419
v 0.169591 0.664896 -0.469266
v 0.169591 0.664896 -0.469266
v 0.169591 0.664896 -0.469266
v 0.087996 0.664896 -0.286507
v 0.087996 0.664896 -0.286507
v -0.087996 0.664896 -0.286507
v -0.087996 0.664896 -0.286507
v -0.169591 0.664896 -0.341825
v -0.169591 0.664896 -0.341825
v 0.169591 0.664896 -0.341825
v 0.169591 0.664896 -0.341825
v -0.189861 0.708866 -0.331101
v -0.189861 0.708866 -0.331101
v -0.189861 0.708866 -0.471068
v -0.189861 0.708866 -0.471068
v -0.189861 0.708866 -0.471068
v 0.189861 0.708866 -0.471068
v 0.189861 0.708866 -0.471068
v 0.189861 0.708866 -0.471068
v 0.189861 0.708866 -0.331101
v 0.189861 0.708866 -0.331101
v 0.159681 0.708866 -0.291570
v 0.159681 0.708866 -0.291570
v -0.094930 0.708866 -0.264352
v -0.094930 0.708866 -0.264352
v -0.159681 0.708866 -0.291570
v -0.159681 0.708866 -0.291570
v 0.094930 0.708866 -0.264352
v 0.094930 0.708866 -0.264352
v -0.181245 0.664896 -0.337371
v -0.181245 0.664896 -0.337371
v -0.181245 0.664896 -0.469266
v -0.181245 0.664896 -0.469266
v -0.181245 0.664896 -0.469266
v 0.181245 0.664896 -0.469266
v 0.181245 0.664896 -0.469266
v 0.181245 0.664896 -0.469266
v 0.181245 0.664896 -0.337371
v 0.181245 0.664896 -0.337371
v 0.152435 0.664896 -0.299633
v 0.152435 0.664896 -0.299633
v -0.090622 0.664896 -0.273651
v -0.090622 0.664896 -0.273651
v -0.152435 0.664896 -0.299633
v -0.152435 0.664896 -0.299633
v 0.090622 0.664896 -0.273651
v 0.090622 0.664896 -0.273651
v -0.099599 0.625279 -0.280558
v -0.107152 0.618409 -0.283037
v -0.107616 0.607977 -0.284203
v -0.100719 0.600094 -0.283371
v -0.090501 0.599378 -0.281030
v -0.082948 0.606248 -0.278550
v -0.082484 0.616680 -0.277385
v -0.089381 0.624563 -0.278216
v -0.160581 0.623026 -0.295192
v -0.161123 0.610852 -0.296552
v -0.098671 0.629760 -0.290038
v -0.108174 0.623210 -0.292946
v -0.108958 0.605584 -0.294915
v -0.100094 0.597748 -0.293614
v -0.087107 0.596838 -0.290638
v -0.077506 0.605570 -0.287487
v -0.076916 0.618830 -0.286005
v -0.085683 0.628850 -0.287062
v -0.162784 0.628513 -0.305310
v -0.163699 0.607943 -0.307608
v -0.123278 0.189469 -0.495550
v -0.126261 0.186486 -0.459854
v -0.126261 0.186486 -0.459854
v -0.123278 0.172305 -0.495550
v -0.123278 0.172305 -0.495550
v -0.140442 0.172305 -0.495550
v -0.137460 0.175288 -0.459854
v -0.137460 0.175288 -0.459854
v -0.140442 0.189469 -0.495550
v -0.140442 0.189469 -0.459854
v -0.123278 0.189469 -0.459854
v -0.123278 0.172305 -0.459854
v -0.123278 0.172305 -0.459854
v -0.140442 0.172305 -0.459854
v -0.137460 0.175288 -0.397570
v -0.137460 0.175288 -0.397570
v -0.140323 0.189350 -0.397570
v -0.123397 0.189350 -0.397570
v -0.123397 0.172424 -0.397570
v -0.123397 0.172424 -0.397570
v -0.140323 0.172424 -0.397570
v -0.123397 0.189350 -0.371694
v -0.123397 0.189350 -0.371694
v -0.123397 0.172424 -0.371694
v -0.123397 0.172424 -0.371694
v -0.123397 0.172424 -0.371694
v -0.140323 0.172424 -0.371694
v -0.140323 0.172424 -0.371694
v -0.140323 0.189350 -0.371694
v -0.140323 0.189350 -0.371694
v -0.146459 0.208285 -0.415048
v -0.146459 0.208285 -0.415048
v -0.138782 0.211697 -0.418528
v -0.138782 0.211697 -0.418528
v -0.141962 0.210284 -0.426928
v -0.141962 0.210284 -0.426928
v -0.141962 0.210284 -0.426928
v -0.141962 0.210284 -0.426928
v -0.149638 0.206872 -0.423449
v -0.149638 0.206872 -0.423449
v -0.128830 0.188203 -0.417858
v -0.128830 0.188203 -0.417858
v -0.131860 0.188806 -0.426589
v -0.131860 0.188806 -0.426589
v -0.131860 0.188806 -0.426589
v -0.126261 0.175288 -0.459854
v -0.126261 0.175288 -0.459854
v -0.126261 0.175288 -0.459854
v -0.126261 0.175288 -0.459854
v -0.137460 0.186486 -0.459854
v -0.137460 0.186486 -0.459854
v -0.137460 0.186486 -0.397570
v -0.137460 0.186486 -0.397570
v -0.126261 0.175288 -0.397570
v -0.126261 0.175288 -0.397570
v -0.126261 0.175288 -0.397570
v -0.126261 0.175288 -0.397570
v -0.126261 0.186486 -0.397570
v -0.126261 0.186486 -0.397570
v -0.139177 0.183917 -0.423804
v -0.139177 0.183917 -0.423804
v -0.137460 0.186486 -0.415469
v -0.137460 0.186486 -0.415469
v -0.147179 0.207965 -0.413144
v -0.137042 0.212470 -0.417739
v -0.141241 0.210604 -0.428832
v -0.141241 0.210604 -0.428832
v -0.151378 0.206099 -0.424237
v -0.140729 0.220765 -0.417739
v -0.144928 0.218899 -0.428832
v -0.144928 0.218899 -0.428832
v -0.144928 0.218899 -0.428832
v -0.155065 0.214393 -0.424237
v -0.155065 0.214393 -0.424237
v -0.150866 0.216260 -0.413144
v -0.105244 0.393917 -0.449866
v -0.105244 0.393917 -0.449866
v -0.105244 0.393917 -0.449866
v -0.105244 0.406251 -0.449866
v -0.105244 0.406251 -0.449866
v -0.087212 0.393917 -0.439455
v -0.087212 0.393917 -0.439455
v -0.087212 0.393917 -0.439455
v -0.087212 0.406251 -0.439455
v -0.087212 0.406251 -0.439455
v -0.087212 0.393917 -0.418633
v -0.087212 0.393917 -0.418633
v -0.087212 0.393917 -0.418633
v -0.087212 0.406251 -0.418633
v -0.087212 0.406251 -0.418633
v -0.105244 0.393917 -0.408222
v -0.105244 0.393917 -0.408222
v -0.105244 0.393917 -0.408222
v -0.105244 0.406251 -0.408222
v -0.105244 0.406251 -0.408222
v -0.123276 0.393917 -0.418633
v -0.123276 0.393917 -0.418633
v -0.123276 0.393917 -0.418633
v -0.123276 0.406251 -0.418633
v -0.123276 0.406251 -0.418633
v -0.123276 0.393917 -0.439455
v -0.123276 0.393917 -0.439455
v -0.123276 0.393917 -0.439455
v -0.123276 0.406251 -0.439455
v -0.123276 0.406251 -0.439455
v -0.098174 0.378902 -0.420954
v -0.098216 0.378664 -0.435698
v -0.098216 0.378664 -0.435698
v -0.112214 0.383301 -0.435733
v -0.112171 0.383539 -0.420989
v -0.149265 0.236120 -0.419673
v -0.152154 0.233145 -0.428987
v -0.152154 0.233145 -0.428987
v -0.161410 0.230421 -0.425428
v -0.158540 0.233413 -0.415834
v -0.148147 0.306698 -0.422503
v -0.147987 0.306715 -0.432948
v -0.147987 0.306715 -0.432948
v -0.157567 0.311500 -0.433267
v -0.157655 0.311478 -0.422429
v -0.133601 0.193718 -0.418682
v -0.135528 0.192687 -0.423933
v -0.135528 0.192687 -0.423933
v -0.140262 0.190430 -0.421813
v -0.138397 0.191437 -0.416500
v -0.096679 0.401148 -0.420971
v -0.096679 0.401148 -0.435716
v -0.096679 0.401148 -0.435716
v -0.111418 0.401598 -0.435716
v -0.111418 0.401598 -0.420971
v -0.157373 0.272196 -0.421368
v -0.157402 0.271392 -0.431671
v -0.157402 0.271392 -0.431671
v -0.168191 0.270554 -0.431897
v -0.168084 0.271360 -0.420949
v -0.070345 0.390993 -0.225733
v -0.070345 0.382913 -0.225733
v -0.070345 0.390993 -0.194107
v -0.070345 0.382913 -0.194107
v -0.101971 0.390993 -0.225733
v -0.101971 0.382913 -0.225733
v -0.101971 0.390993 -0.194107
v -0.101971 0.382913 -0.194107
v 0.070345 0.390993 -0.225733
v 0.070345 0.382913 -0.225733
v 0.070345 0.390993 -0.194107
v 0.070345 0.382913 -0.194107
v 0.101971 0.390993 -0.225733
v 0.101971 0.382913 -0.225733
v 0.101971 0.390993 -0.194107
v 0.101971 0.382913 -0.194107
vn 0.0001 0.9854 0.1702
vn -0.0000 0.9892 0.1469
vn -0.0000 0.9840 0.1781
vn -0.3049 0.1491 -0.9406
vn 0.3572 0.4052 -0.8415
vn 0.2956 0.1560 -0.9425
vn 0.2667 -0.3065 -0.9138
vn -0.4177 -0.2009 -0.8861
vn 0.3879 -0.2202 -0.8950
vn -0.8867 -0.4395 -0.1435
vn -0.9726 -0.1608 -0.1680
vn -0.9668 -0.1460 0.2098
vn -0.5857 -0.6359 -0.5025
vn -0.5928 -0.4158 0.6897
vn -0.0000 -0.1189 0.9929
vn -0.6717 -0.0709 0.7374
vn -0.9250 0.0268 -0.3791
vn -0.9156 -0.3276 -0.2332
vn -0.9545 -0.1856 -0.2334
vn -0.8946 -0.3707 0.2495
vn -0.9740 -0.0028 0.2266
vn -0.0000 -0.2128 0.9771
vn -0.0000 -0.4425 0.8968
vn -0.7585 -0.4755 -0.4457
vn -0.6797 -0.1862 0.7095
vn -0.9975 0.0669 0.0221
vn -0.9959 0.0575 -0.0699
vn -0.9583 0.0821 0.2738
vn -0.9952 0.0661 -0.0720
vn -0.9590 0.2019 -0.1991
vn -0.0000 -1.0000 -0.0000
vn -0.0875 -0.8479 -0.5229
vn 0.0077 -0.8617 -0.5073
vn -0.9802 -0.0321 -0.1955
vn -0.9593 0.1457 -0.2420
vn -0.9321 -0.0007 -0.3622
vn -0.2499 -0.2531 -0.9346
vn -0.9441 -0.0103 -0.3296
vn -0.8377 0.0758 -0.5409
vn -0.8399 0.0752 -0.5376
vn -0.0003 1.0000 -0.0003
vn -0.9927 -0.1110 -0.0469
vn -0.9069 -0.4033 -0.1216
vn -0.7375 -0.6693 -0.0898
vn -0.8144 -0.5683 -0.1177
vn -0.2559 -0.7645 -0.5916
vn -0.1795 -0.9750 -0.1310
vn -0.2308 -0.9126 -0.3374
vn -0.2559 -0.7646 -0.5916
vn 0.2368 -0.0000 -0.9716
vn -0.2368 -0.0000 -0.9716
vn -0.9915 -0.0880 -0.0956
vn 0.2603 -0.2316 -0.9373
vn 0.3003 -0.7627 -0.5728
vn -0.9974 -0.0293 -0.0657
vn -0.8953 0.4337 0.1014
vn -0.8403 0.4793 0.2534
vn -0.9103 -0.4127 0.0310
vn -0.9883 -0.1469 0.0419
vn -0.3990 -0.7674 0.5020
vn -0.7894 -0.6137 0.0132
vn -0.7324 -0.3238 -0.5990
vn -0.9229 -0.0845 -0.3757
vn -0.0000 0.7097 -0.7045
vn 0.0005 1.0000 0.0004
vn -0.0009 0.7844 -0.6202
vn -0.8703 0.3901 0.3006
vn -0.8019 -0.5040 -0.3209
vn -0.9091 0.3746 0.1822
vn -0.3829 0.4078 -0.8289
vn -0.9966 0.0824 -0.0051
vn -0.8296 -0.3176 0.4592
vn -0.9891 0.0739 -0.1275
vn -0.9949 0.0006 0.1007
vn -0.9770 0.0528 0.2065
vn -0.8230 0.0236 0.5676
vn -0.2949 -0.2881 -0.9111
vn -0.9711 0.2303 0.0627
vn -0.8021 0.5334 0.2687
vn -0.9342 0.3538 0.0465
vn -0.8915 0.0314 0.4520
vn -0.9272 0.3178 -0.1984
vn -0.9787 0.0929 0.1830
vn -0.5969 0.1250 0.7925
vn -0.2081 0.2065 0.9561
vn -0.0669 -0.2779 0.9583
vn -1.0000 -0.0005 0.0078
vn -1.0000 -0.0019 0.0008
vn -0.9961 -0.0103 -0.0876
vn -0.0002 1.0000 0.0003
vn -0.0006 1.0000 -0.0002
vn -1.0000 -0.0033 0.0057
vn -1.0000 -0.0052 0.0010
vn -0.9999 -0.0104 -0.0074
vn 0.0047 0.1024 -0.9947
vn 0.0073 0.1054 -0.9944
vn 0.0004 0.1039 -0.9946
vn -0.6661 0.0780 0.7418
vn -0.6797 -0.1861 0.7095
vn -0.9668 -0.1458 0.2098
vn -0.0009 0.7845 -0.6202
vn -0.9998 -0.0220 0.0027
vn -0.9997 -0.0244 0.0019
vn -0.9996 -0.0262 -0.0045
vn -0.9997 -0.0233 0.0060
vn -0.9993 -0.0379 -0.0000
vn -0.0054 0.1044 -0.9945
vn -0.0000 0.7098 -0.7044
vn -0.5241 0.8136 -0.2516
vn 0.3456 0.1137 -0.9315
vn 0.8772 0.3707 0.3050
vn 0.9315 0.1137 0.3456
vn -0.9315 0.1137 -0.3456
vn 0.3050 0.3706 -0.8773
vn -0.3456 0.1137 0.9315
vn -0.8773 0.3707 -0.3050
vn -0.3050 0.3705 0.8773
vn -0.8773 0.3707 -0.3049
vn -0.0000 1.0000 -0.0001
vn -0.0000 0.9895 0.1443
vn -0.6717 -0.0707 0.7374
vn -0.1933 0.9795 0.0562
vn -0.0000 0.0239 -0.9997
vn -0.9589 0.2019 -0.1991
vn -0.1748 0.9842 -0.0289
vn -0.0000 1.0000 -0.0000
vn 0.2928 -0.9140 -0.2807
vn 0.3879 -0.2201 -0.8950
vn -0.2246 0.0784 -0.9713
vn 0.2081 0.9390 0.2739
vn -0.0000 0.6328 0.7743
vn 0.8867 -0.4396 -0.1435
vn 0.9668 -0.1459 0.2099
vn 0.9726 -0.1608 -0.1680
vn 0.5857 -0.6359 -0.5025
vn 0.5928 -0.4158 0.6897
vn 0.6717 -0.0709 0.7374
vn 0.9250 0.0268 -0.3791
vn 0.9156 -0.3276 -0.2332
vn 0.7585 -0.4755 -0.4457
vn 0.9545 -0.1856 -0.2334
vn 0.8946 -0.3707 0.2495
vn 0.9740 -0.0028 0.2266
vn 0.6797 -0.1862 0.7095
vn 0.9975 0.0669 0.0221
vn 0.9583 0.0821 0.2738
vn 0.9959 0.0575 -0.0699
vn 0.9952 0.0661 -0.0720
vn 0.9590 0.2019 -0.1991
vn 0.5857 -0.6359 -0.5026
vn 0.0875 -0.8479 -0.5229
vn -0.0077 -0.8617 -0.5073
vn 0.0853 -0.8122 -0.5770
vn 0.6717 -0.0707 0.7374
vn 0.2172 0.9743 0.0600
vn 0.9802 -0.0321 -0.1955
vn 0.9593 0.1457 -0.2420
vn 0.9321 -0.0007 -0.3622
vn 0.2604 -0.2316 -0.9373
vn 0.8377 0.0758 -0.5409
vn 0.8399 0.0752 -0.5376
vn 0.0003 1.0000 -0.0003
vn 0.0002 1.0000 0.0003
vn 0.0006 1.0000 -0.0002
vn 0.9927 -0.1110 -0.0469
vn 0.9441 -0.0103 -0.3296
vn 0.8144 -0.5683 -0.1177
vn 0.9069 -0.4033 -0.1216
vn 0.2604 -0.2317 -0.9373
vn 0.1795 -0.9750 -0.1310
vn 0.7375 -0.6693 -0.0898
vn 0.9915 -0.0880 -0.0956
vn 0.8953 0.4337 0.1014
vn 0.9974 -0.0293 -0.0657
vn 0.8403 0.4793 0.2534
vn 0.9883 -0.1469 0.0419
vn 0.9103 -0.4127 0.0310
vn 0.7894 -0.6137 0.0132
vn 0.3990 -0.7674 0.5020
vn 0.9229 -0.0846 -0.3757
vn 0.7324 -0.3238 -0.5990
vn -0.0005 1.0000 0.0004
vn 0.8703 0.3901 0.3006
vn 0.8019 -0.5040 -0.3209
vn 0.9966 0.0824 -0.0051
vn 0.9091 0.3746 0.1822
vn 0.8296 -0.3176 0.4592
vn 0.9891 0.0739 -0.1275
vn 0.9949 0.0006 0.1007
vn 0.8230 0.0236 0.5676
vn 0.9770 0.0527 0.2065
vn 0.9711 0.2303 0.0627
vn 0.8020 0.5334 0.2687
vn 0.9342 0.3538 0.0465
vn 0.8915 0.0314 0.4520
vn 0.9787 0.0929 0.1831
vn 0.5969 0.1250 0.7925
vn 0.2081 0.2065 0.9561
vn 1.0000 -0.0005 0.0078
vn 0.9961 -0.0103 -0.0876
vn 1.0000 -0.0019 0.0008
vn -0.0071 0.7844 -0.6202
vn 1.0000 -0.0033 0.0057
vn 0.9999 -0.0104 -0.0074
vn 1.0000 -0.0052 0.0010
vn -0.0047 0.1024 -0.9947
vn -0.0004 0.1039 -0.9946
vn -0.0073 0.1054 -0.9944
vn 0.6661 0.0780 0.7418
vn 0.6797 -0.1861 0.7095
vn 0.9668 -0.1458 0.2099
vn 0.0009 0.7845 -0.6202
vn 0.9998 -0.0220 0.0028
vn 0.9996 -0.0262 -0.0045
vn 0.9997 -0.0244 0.0019
vn 0.9997 -0.0233 0.0060
vn 0.0054 0.1044 -0.9945
vn 0.9272 0.3177 -0.1985
vn 0.5241 0.8136 -0.2517
vn 0.9777 0.2028 0.0542
vn 0.1735 0.9847 -0.0162
vn 0.1883 0.9816 -0.0320
vn 0.9589 0.2019 -0.1991
vn -0.1453 0.9687 0.2014
vn -0.1584 0.9873 -0.0127
vn -0.9777 0.2028 0.0542
vn -0.9989 -0.0118 -0.0458
vn -0.0000 1.0000 0.0066
vn 0.9989 -0.0118 -0.0458
vn -0.8624 0.3585 0.3573
vn -0.3456 0.1136 -0.9315
vn -0.9179 0.1138 0.3802
vn -0.3050 0.3706 -0.8773
vn 0.9315 0.1137 -0.3456
vn -0.3456 0.1137 -0.9315
vn 0.8773 0.3706 -0.3050
vn 0.3802 0.1138 0.9179
vn 0.8772 0.3707 -0.3051
vn 0.3531 0.3853 0.8526
vn -0.9822 -0.1262 0.1388
vn -0.9912 -0.1326 -0.0000
vn -0.9720 -0.1268 0.1979
vn -0.1070 -0.0386 0.9935
vn -0.4377 -0.0679 0.8965
vn -0.0129 -0.0441 0.9989
vn 0.0118 -0.0440 0.9990
vn 0.9720 -0.1268 0.1979
vn 0.5769 -0.0518 0.8151
vn 0.4377 -0.0679 0.8965
vn 0.9912 -0.1326 -0.0000
vn 0.9822 -0.1262 0.1388
vn -0.5769 -0.0518 0.8151
vn 0.1014 -0.0389 0.9941
vn 0.5560 -0.2377 0.7964
vn 0.9622 -0.2128 0.1702
vn 0.5610 -0.2379 0.7929
vn 0.0961 -0.2150 0.9719
vn -0.1099 -0.2159 0.9702
vn -0.0990 -0.2152 0.9715
vn -0.5560 -0.2377 0.7964
vn -0.5610 -0.2379 0.7929
vn -0.9622 -0.2128 0.1702
vn -0.9663 -0.2105 0.1483
vn -0.9813 -0.1923 -0.0000
vn 0.1069 -0.2157 0.9706
vn 0.9663 -0.2105 0.1483
vn 0.9813 -0.1923 -0.0000
vn -0.0000 -0.0409 -0.9992
vn -0.0000 -0.0410 -0.9992
vn -0.0000 -0.0425 -0.9991
vn -0.0000 -0.0429 -0.9991
vn 0.2122 0.0420 0.9763
vn 0.0069 0.3282 0.9446
vn -0.3762 -0.5229 0.7649
vn -0.2425 0.3380 0.9094
vn -0.3664 -0.6136 0.6995
vn -0.2782 -0.4808 0.8315
vn -0.3028 0.8086 0.5044
vn -0.2652 0.4828 0.8346
vn 0.7472 -0.4500 0.4891
vn 0.2730 -0.3174 0.9082
vn -0.1963 -0.9525 0.2330
vn 0.7860 0.2434 0.5683
vn 0.2481 -0.9113 0.3286
vn 0.1154 -0.7596 0.6401
vn 0.3238 0.7912 0.5188
vn -0.3634 0.6407 0.6764
vn -0.1143 0.8912 0.4390
vn 0.7061 -0.7062 0.0515
vn 0.7071 0.7071 -0.0000
vn 0.7061 0.7062 0.0515
vn -0.7059 0.7059 0.0590
vn -0.7071 -0.7071 -0.0000
vn -0.7064 -0.7065 0.0439
vn 0.7071 -0.7071 -0.0000
vn 0.7062 -0.7062 0.0515
vn -0.0000 -0.0000 1.0000
vn 0.3413 0.9395 0.0308
vn 0.9631 0.2691 0.0075
vn 0.8949 0.4453 -0.0298
vn 0.7055 -0.7055 -0.0681
vn -0.7049 -0.7050 -0.0780
vn -0.0000 -0.0000 -1.0000
vn -0.7054 0.7055 -0.0682
vn 0.7059 0.7059 -0.0584
vn 0.7054 -0.7055 -0.0682
vn -0.7071 0.7071 -0.0000
vn 0.8437 0.3673 0.3914
vn 0.4325 0.1821 -0.8830
vn 0.3423 0.1463 -0.9281
vn 0.4326 0.1822 -0.8830
vn -0.8361 -0.3738 -0.4015
vn 0.3424 0.1463 -0.9281
vn -0.4103 -0.1789 0.8942
vn -0.3350 -0.1562 0.9292
vn -0.9993 0.0194 -0.0312
vn -0.8746 0.4838 -0.0302
vn -0.3397 -0.9405 0.0016
vn -0.5328 0.5107 0.6747
vn -0.0220 0.7376 -0.6748
vn -0.8940 0.3501 -0.2794
vn -0.1865 0.9825 -0.0006
vn -0.7434 0.6599 0.1087
vn 0.4061 -0.9138 -0.0000
vn -0.8041 -0.4563 -0.3811
vn 0.3892 0.0619 -0.9191
vn 0.4062 -0.9138 -0.0000
vn 0.8847 0.2698 0.3803
vn -0.8940 0.3502 -0.2795
vn -0.0220 0.7377 -0.6748
vn -0.3066 -0.2475 0.9191
vn 0.3392 0.8982 0.2795
vn 0.5000 -0.0000 -0.8660
vn 1.0000 -0.0000 -0.0000
vn 0.5000 -0.0000 0.8660
vn -0.5000 -0.0000 0.8660
vn -1.0000 -0.0000 -0.0000
vn -0.5000 -0.0000 -0.8660
vn 0.6126 -0.0539 -0.7885
vn 0.8650 0.2441 0.4384
vn 0.3785 -0.0111 -0.9256
vn -0.7641 -0.0231 -0.6447
vn 0.3785 -0.0110 -0.9255
vn -0.8631 -0.3508 -0.3632
vn -0.4605 -0.1058 0.8813
vn -0.7729 0.0643 0.6313
vn 0.6402 0.0474 0.7667
vn -0.5716 0.2775 0.7722
vn -0.6813 0.3213 -0.6577
vn -0.6816 0.3366 0.6497
vn 0.5812 -0.3234 0.7467
vn 0.6691 -0.3699 0.6446
vn 0.5906 -0.3577 -0.7234
vn 0.6127 -0.0539 -0.7885
vn 0.6756 -0.3853 -0.6286
vn -0.5776 0.2735 -0.7692
vn 0.5906 -0.3577 -0.7233
vn -0.7923 -0.4540 -0.4075
vn 0.3972 0.0487 -0.9164
vn -0.3521 -0.1856 0.9174
vn 0.8699 0.3286 0.3677
vn 0.7551 -0.0510 -0.6536
vn -0.7014 0.0305 -0.7121
vn 0.7573 -0.0510 0.6511
vn -0.7038 0.0287 0.7098
vn 0.7551 -0.0511 -0.6537
vn 0.2475 0.9689 -0.0000
vn 0.7071 -0.0000 -0.7071
vn 0.2403 0.9405 -0.2403
vn -0.2403 0.9405 -0.2402
vn -0.2475 0.9689 -0.0000
vn -0.7071 -0.0000 -0.7071
vn -0.2402 0.9405 -0.2403
vn -0.0853 -0.8122 -0.5770
vn 0.3002 -0.7627 -0.5728
vn -0.0000 0.0821 0.9966
vn -0.3049 0.3706 0.8773
vn 0.2213 0.0784 -0.9720
vn 0.0669 -0.2779 0.9583
vn 0.2929 -0.9140 -0.2807
vn 0.9993 -0.0379 -0.0000
vn 0.3531 0.3852 0.8526
vn -0.4368 -0.8397 0.3227
vn -0.4019 -0.8976 0.1811
vn -0.3234 0.8674 0.3783
vn 0.7996 0.3526 0.4862
vn -0.7944 -0.3544 -0.4933
vn 0.3971 0.0486 -0.9165
vt 0.737085 0.345074
vt 0.873100 0.331717
vt 0.872994 0.344992
vt 0.563042 0.267346
vt 0.637168 0.305296
vt 0.561338 0.304529
vt 0.517588 0.306496
vt 0.465823 0.248358
vt 0.466550 0.323832
vt 0.149109 0.316743
vt 0.183886 0.332251
vt 0.145244 0.372460
vt 0.180732 0.260957
vt 0.067501 0.415059
vt 0.012067 0.463756
vt 0.018626 0.404403
vt 0.118818 0.244129
vt 0.122043 0.295472
vt 0.094081 0.277606
vt 0.089407 0.356481
vt 0.043781 0.335093
vt 0.128499 0.460408
vt 0.062754 0.462345
vt 0.165705 0.214256
vt 0.130632 0.420144
vt 0.360511 0.190743
vt 0.368626 0.070171
vt 0.388454 0.250244
vt 0.347546 0.072899
vt 0.077456 0.269250
vt 0.105700 0.241812
vt 0.639183 0.158404
vt 0.640198 0.103118
vt 0.668584 0.151029
vt 0.578979 0.061354
vt 0.599951 0.044216
vt 0.088691 0.234538
vt 0.150724 0.110050
vt 0.171174 0.085533
vt 0.170483 0.120157
vt 0.126299 0.096490
vt 0.340701 0.015178
vt 0.365423 0.040379
vt 0.344277 0.043144
vt 0.444002 0.228112
vt 0.458912 0.141672
vt 0.114453 0.158086
vt 0.184264 0.133069
vt 0.178133 0.181312
vt 0.191365 0.096727
vt 0.658016 0.195275
vt 0.644074 0.197281
vt 0.636138 0.266307
vt 0.631199 0.241389
vt 0.656930 0.253255
vt 0.195868 0.012067
vt 0.148917 0.068304
vt 0.108404 0.146030
vt 0.217929 0.030146
vt 0.657952 0.317498
vt 0.574059 0.129867
vt 0.612069 0.120817
vt 0.541479 0.109703
vt 0.557622 0.058290
vt 0.530281 0.105505
vt 0.526796 0.067885
vt 0.542214 0.134611
vt 0.545033 0.123739
vt 0.470664 0.066392
vt 0.466683 0.122657
vt 0.417703 0.075230
vt 0.589160 0.206582
vt 0.626292 0.211575
vt 0.587979 0.215704
vt 0.608581 0.242824
vt 0.562444 0.247881
vt 0.522611 0.244373
vt 0.560998 0.219990
vt 0.518872 0.265182
vt 0.483472 0.232484
vt 0.506291 0.206548
vt 0.481185 0.159165
vt 0.490279 0.132446
vt 0.497835 0.150442
vt 0.472784 0.118081
vt 0.492151 0.122574
vt 0.660334 0.251669
vt 0.433087 0.198134
vt 0.505982 0.155266
vt 0.575860 0.039456
vt 0.392558 0.300433
vt 0.258373 0.339850
vt 0.257481 0.305713
vt 0.253970 0.262403
vt 0.264089 0.211981
vt 0.478364 0.012067
vt 0.050537 0.932049
vt 0.024019 0.917908
vt 0.050537 0.915904
vt 0.043168 0.884644
vt 0.013207 0.884107
vt 0.035891 0.870235
vt 0.048073 0.899994
vt 0.018550 0.894750
vt 0.022185 0.906111
vt 0.012269 0.930010
vt 0.024094 0.929816
vt 0.875769 0.275900
vt 0.736963 0.331812
vt 0.734071 0.276358
vt 0.734995 0.033439
vt 0.722008 0.114436
vt 0.692742 0.109694
vt 0.867218 0.248880
vt 0.696821 0.194006
vt 0.727297 0.190928
vt 0.742196 0.395705
vt 0.351821 0.667972
vt 0.380858 0.728019
vt 0.359727 0.730045
vt 0.842022 0.419971
vt 0.768086 0.419971
vt 0.804841 0.012067
vt 0.853121 0.050791
vt 0.804773 0.032071
vt 0.158219 0.600979
vt 0.150138 0.546290
vt 0.191427 0.582228
vt 0.195589 0.651945
vt 0.070100 0.509311
vt 0.021913 0.522858
vt 0.135583 0.675925
vt 0.133074 0.624741
vt 0.186273 0.699015
vt 0.106968 0.645293
vt 0.095566 0.566506
vt 0.051665 0.591095
vt 0.132744 0.500312
vt 0.360833 0.488944
vt 0.388329 0.429405
vt 0.370128 0.609134
vt 0.349092 0.607239
vt 0.091202 0.655174
vt 0.122866 0.680114
vt 0.640302 0.468575
vt 0.639203 0.413282
vt 0.668609 0.420644
vt 0.579134 0.510442
vt 0.612158 0.450909
vt 0.874470 0.033885
vt 0.887234 0.114583
vt 0.107030 0.689508
vt 0.188647 0.804485
vt 0.205755 0.790661
vt 0.215712 0.825234
vt 0.167332 0.822273
vt 0.195447 0.846101
vt 0.370253 0.637916
vt 0.348945 0.638616
vt 0.444596 0.343886
vt 0.459040 0.430258
vt 0.433486 0.373739
vt 0.144996 0.762274
vt 0.203595 0.729316
vt 0.229837 0.804071
vt 0.657997 0.376482
vt 0.644049 0.374404
vt 0.632911 0.330314
vt 0.141108 0.775386
vt 0.574160 0.441894
vt 0.557779 0.513542
vt 0.541608 0.462155
vt 0.526934 0.503985
vt 0.530409 0.466372
vt 0.545159 0.448112
vt 0.542339 0.437249
vt 0.470762 0.505531
vt 0.466790 0.449277
vt 0.472892 0.453855
vt 0.589150 0.365027
vt 0.626338 0.359976
vt 0.587893 0.355887
vt 0.608675 0.328652
vt 0.561580 0.323932
vt 0.560801 0.351767
vt 0.522009 0.327440
vt 0.483858 0.339665
vt 0.506408 0.365490
vt 0.481333 0.412850
vt 0.490400 0.439510
vt 0.661121 0.320274
vt 0.417703 0.496612
vt 0.506130 0.416709
vt 0.576038 0.532354
vt 0.392506 0.379268
vt 0.257462 0.373996
vt 0.253970 0.417349
vt 0.264176 0.467826
vt 0.478536 0.559851
vt 0.492268 0.449365
vt 0.497979 0.421538
vt 0.899631 0.237120
vt 0.867251 0.223707
vt 0.881978 0.190712
vt 0.912468 0.193808
vt 0.756299 0.050406
vt 0.709773 0.237378
vt 0.742103 0.223879
vt 0.916500 0.109834
vt 0.742281 0.248486
vt 0.119570 0.713861
vt 0.086624 0.884332
vt 0.113154 0.870235
vt 0.113154 0.886351
vt 0.075775 0.918099
vt 0.105745 0.917613
vt 0.098449 0.932022
vt 0.081147 0.907478
vt 0.110673 0.902265
vt 0.074915 0.872181
vt 0.074671 0.884043
vt 0.097131 0.209276
vt 0.586439 0.903795
vt 0.417703 0.949661
vt 0.429121 0.874902
vt 0.589121 0.839756
vt 0.430597 0.848575
vt 0.430776 0.826357
vt 0.431007 0.745615
vt 0.429205 0.697082
vt 0.588096 0.693204
vt 0.430747 0.723401
vt 0.417703 0.622329
vt 0.586359 0.668121
vt 0.588192 0.878717
vt 0.588945 0.732178
vt 0.922043 0.568914
vt 0.692742 0.568954
vt 0.864717 0.444104
vt 0.595871 0.693563
vt 0.620968 0.664850
vt 0.623452 0.691792
vt 0.596852 0.731782
vt 0.623979 0.841515
vt 0.596967 0.840124
vt 0.595963 0.878367
vt 0.623528 0.880091
vt 0.621055 0.907058
vt 0.593789 0.904217
vt 0.605902 0.987933
vt 0.579817 0.981668
vt 0.624065 0.730375
vt 0.593707 0.667700
vt 0.605812 0.583985
vt 0.573085 0.980334
vt 0.579728 0.590254
vt 0.848174 0.850398
vt 0.766903 0.850451
vt 0.726183 0.753711
vt 0.916844 0.595486
vt 0.909807 0.595486
vt 0.704983 0.595529
vt 0.697945 0.595528
vt 0.888726 0.753625
vt 0.153517 0.876194
vt 0.157730 0.880323
vt 0.143264 0.886228
vt 0.153933 0.891323
vt 0.146922 0.925154
vt 0.147204 0.891335
vt 0.159638 0.929895
vt 0.153981 0.924728
vt 0.145134 0.870323
vt 0.147762 0.875879
vt 0.140567 0.893842
vt 0.156027 0.870235
vt 0.137888 0.877636
vt 0.143502 0.879999
vt 0.163349 0.877870
vt 0.158041 0.886274
vt 0.160607 0.893850
vt 0.352261 0.821113
vt 0.344994 0.843617
vt 0.342856 0.822460
vt 0.334236 0.822906
vt 0.324260 0.844127
vt 0.325684 0.822475
vt 0.313916 0.843201
vt 0.316378 0.821289
vt 0.342157 0.820288
vt 0.349273 0.819662
vt 0.334186 0.820544
vt 0.326478 0.820374
vt 0.319301 0.819730
vt 0.340073 0.794848
vt 0.342051 0.782554
vt 0.316669 0.781793
vt 0.323927 0.765041
vt 0.325810 0.780310
vt 0.326528 0.782498
vt 0.334187 0.780034
vt 0.334355 0.782157
vt 0.342648 0.780523
vt 0.344141 0.764807
vt 0.334423 0.754179
vt 0.334024 0.764383
vt 0.354210 0.766029
vt 0.351796 0.781774
vt 0.760409 0.890091
vt 0.765001 0.875391
vt 0.766138 0.889353
vt 0.743709 0.875042
vt 0.748384 0.889895
vt 0.742721 0.889041
vt 0.754297 0.875948
vt 0.754382 0.890273
vt 0.349229 0.783177
vt 0.332519 0.798444
vt 0.754288 0.896790
vt 0.761574 0.903921
vt 0.754356 0.904029
vt 0.338136 0.800157
vt 0.334266 0.793233
vt 0.748203 0.890926
vt 0.741579 0.889698
vt 0.767252 0.890064
vt 0.760675 0.891139
vt 0.747381 0.896419
vt 0.740377 0.894996
vt 0.754432 0.891367
vt 0.761372 0.896663
vt 0.768377 0.895372
vt 0.348185 0.870131
vt 0.338150 0.880848
vt 0.340964 0.868470
vt 0.345425 0.882276
vt 0.336129 0.893618
vt 0.343516 0.894382
vt 0.335606 0.906711
vt 0.343103 0.906499
vt 0.336854 0.919338
vt 0.344246 0.918554
vt 0.338606 0.931997
vt 0.345977 0.930811
vt 0.340836 0.944445
vt 0.326725 0.926734
vt 0.313916 0.909113
vt 0.334647 0.844336
vt 0.281055 0.805247
vt 0.275290 0.782153
vt 0.281284 0.780812
vt 0.261717 0.805090
vt 0.256698 0.780982
vt 0.262944 0.781393
vt 0.269136 0.782314
vt 0.268289 0.805017
vt 0.274793 0.805564
vt 0.272105 0.880011
vt 0.262817 0.829139
vt 0.269311 0.828725
vt 0.275640 0.828312
vt 0.280998 0.880732
vt 0.281929 0.827788
vt 0.255347 0.806003
vt 0.289782 0.879834
vt 0.262871 0.880229
vt 0.256459 0.829222
vt 0.265472 0.754498
vt 0.262067 0.754179
vt 0.269003 0.754587
vt 0.272494 0.754610
vt 0.256141 0.893707
vt 0.253970 0.881585
vt 0.264098 0.891590
vt 0.280303 0.893326
vt 0.271962 0.891618
vt 0.289520 0.893671
vt 0.210189 0.897483
vt 0.188123 0.898092
vt 0.191945 0.894452
vt 0.192546 0.876830
vt 0.211113 0.870235
vt 0.211625 0.876006
vt 0.188123 0.873527
vt 0.692742 0.878712
vt 0.714808 0.879322
vt 0.696564 0.882353
vt 0.715732 0.906570
vt 0.697165 0.899975
vt 0.716244 0.900799
vt 0.692742 0.903277
vt 0.361819 0.012067
vt 0.229837 0.049885
vt 0.393570 0.339857
vt 0.012067 0.918150
vt 0.867913 0.395698
vt 0.373130 0.665187
vt 0.600131 0.527549
vt 0.216937 0.775264
vt 0.086737 0.872406
vt 0.084790 0.896124
vt 0.572997 0.591588
vt 0.692749 0.484420
vt 0.750073 0.444115
vt 0.710975 0.460549
vt 0.903818 0.460538
vt 0.922043 0.484407
vt 0.744565 0.849026
vt 0.726250 0.829776
vt 0.888795 0.829651
vt 0.870516 0.848931
vt 0.141201 0.929895
vt 0.137287 0.887008
vt 0.163990 0.887116
vt 0.355232 0.842259
vt 0.313916 0.766668
vt 0.319372 0.783131
vt 0.344605 0.754622
vt 0.759550 0.874584
vt 0.749186 0.874584
vt 0.348185 0.943114
vt 0.315247 0.921635
vt 0.324048 0.901666
vt 0.275903 0.754179
vt 0.208967 0.902221
vt 0.713585 0.874584
s 1
usemtl ToiletMaterial
f 123/1/1 200/2/2 155/3/3
f 82/4/4 208/5/5 147/6/6
f 148/7/7 82/4/4 147/6/6
f 91/8/8 148/7/7 152/9/9
f 20/10/10 10/11/11 116/12/12
f 18/13/13 10/11/11 20/10/10
f 13/14/14 4/15/15 31/16/16
f 34/17/17 15/18/18 30/19/19
f 30/19/19 14/20/20 25/21/21
f 14/20/20 31/16/16 25/21/21
f 13/14/14 2/22/22 1/23/23
f 18/13/13 15/18/18 16/24/24
f 20/10/10 14/20/20 15/18/18
f 14/20/20 21/25/25 13/14/14
f 40/26/26 24/27/27 23/28/28
f 37/29/29 24/27/27 40/26/26
f 72/30/30 30/19/19 25/21/21
s 0
f 29/19/31 52/31/31 33/17/31
s 1
f 43/32/32 19/33/13 17/34/24
f 19/33/13 103/35/33 12/36/11
f 53/31/34 72/30/30 70/37/35
s 0
f 61/38/31 7/39/31 27/40/31
f 52/31/31 27/40/31 33/17/31
s 1
f 128/41/36 8/39/37 62/38/38
f 89/42/8 56/43/39 58/44/40
f 58/44/40 24/27/27 37/29/29
s 0
f 57/45/41 96/46/41 88/8/41
s 1
f 51/47/42 128/41/36 62/38/38
f 28/40/43 67/48/44 65/49/45
f 63/50/46 28/40/43 8/39/37
f 43/32/32 66/51/45 100/52/47
f 59/53/48 68/54/44 64/55/49
f 263/56/50 8/39/37 126/57/51
f 51/47/42 124/58/52 128/41/36
f 143/59/53 63/50/46 8/39/37
f 64/55/49 146/60/54 59/53/48
f 75/61/55 104/35/56 42/62/57
f 74/63/58 106/64/59 75/61/55
f 74/63/58 107/65/60 110/66/61
f 75/61/55 76/67/62 119/68/63
f 48/69/64 114/70/65 38/71/66
f 44/32/67 75/61/55 42/62/57
f 75/61/55 79/72/68 76/67/62
f 101/52/69 60/53/70 78/73/71
f 78/73/71 98/74/72 79/72/68
f 82/4/4 81/75/73 60/53/70
f 83/76/74 98/74/72 81/75/73
f 85/77/75 94/78/76 83/76/74
f 84/79/77 83/76/74 82/4/4
f 84/79/77 92/80/78 85/77/75
f 85/77/75 92/80/78 86/81/79
f 93/82/80 120/83/81 118/84/82
f 97/46/83 115/70/84 120/83/81
f 120/83/81 46/85/85 121/86/86
f 100/52/47 69/87/44 59/53/48
f 87/81/87 99/74/88 95/78/89
f 38/71/66 96/46/90 36/88/91
f 93/82/80 91/8/8 97/46/83
f 87/81/87 80/72/92 99/74/88
f 60/53/70 81/75/73 78/73/71
f 80/72/92 113/89/93 77/67/94
f 44/32/67 101/52/69 78/73/71
f 93/82/80 86/81/79 92/80/78
f 9/90/95 102/35/96 105/64/97
f 35/91/98 3/92/22 22/93/99
f 23/28/28 22/93/99 117/94/100
f 11/95/11 23/28/28 117/94/100
f 105/64/97 39/96/101 9/90/95
f 108/65/102 49/69/103 111/66/104
f 49/69/103 122/86/105 47/85/106
f 39/96/101 109/66/107 48/69/108
f 118/84/82 76/67/62 112/89/109
f 120/83/81 107/65/60 74/63/58
f 119/68/63 120/83/81 74/63/58
f 74/63/58 75/61/55 119/68/63
f 135/97/110 140/98/111 133/99/112
f 129/100/113 136/101/114 134/102/110
f 132/103/115 131/104/116 129/100/113
f 133/99/112 139/105/117 132/103/115
f 130/106/118 140/98/111 137/107/114
f 296/108/119 50/109/120 292/110/119
f 32/111/121 277/112/122 26/113/21
s 0
f 291/110/123 266/114/123 295/108/123
s 1
f 73/115/124 277/112/122 275/116/125
f 155/3/3 127/117/126 123/1/1
f 146/60/54 207/5/127 59/53/48
f 151/118/128 55/119/129 90/120/8
s 0
f 127/117/126 261/121/126 125/122/126
s 1
f 5/123/15 269/124/130 271/125/131
f 112/89/109 93/82/80 118/84/82
f 174/126/132 172/127/133 161/128/134
f 170/129/135 174/126/132 161/128/134
f 4/15/15 165/130/136 159/131/137
f 184/132/138 167/133/139 168/134/140
f 182/135/141 166/136/142 167/133/139
f 159/131/137 166/136/142 177/137/143
f 165/130/136 2/22/22 254/138/144
f 167/133/139 170/129/135 168/134/140
f 166/136/142 174/126/132 167/133/139
f 166/136/142 254/138/144 172/127/133
f 190/139/145 175/140/146 176/141/147
f 187/142/148 190/139/145 176/141/147
f 157/143/149 177/137/143 182/135/141
s 0
f 181/135/31 183/132/31 202/144/31
s 1
f 171/145/150 193/146/151 169/147/140
f 171/145/150 242/148/152 191/149/153
f 160/150/154 264/151/155 269/124/130
f 157/143/149 203/144/156 216/152/157
s 0
f 209/153/31 179/154/31 141/155/31
f 179/154/31 202/144/31 183/132/31
s 1
f 154/156/158 142/155/159 262/157/50
f 204/158/160 151/118/128 206/159/161
f 176/141/147 206/159/161 187/142/148
f 205/160/162 234/161/163 186/162/164
f 201/163/165 210/153/166 154/156/158
f 211/164/167 180/154/168 184/132/138
f 180/154/168 145/165/54 142/155/169
f 212/166/167 193/146/151 238/167/170
f 207/5/127 146/60/54 214/168/171
f 201/163/165 154/156/158 156/169/172
f 240/148/173 219/170/174 192/149/175
f 243/171/176 218/172/177 219/170/174
f 218/172/177 248/173/178 245/174/179
f 219/170/174 257/175/180 220/176/181
f 198/177/64 253/178/182 195/179/126
f 219/170/174 194/146/183 192/149/175
f 219/170/174 223/180/184 222/181/185
f 239/167/186 222/181/185 208/5/5
f 222/181/185 236/182/187 225/183/188
f 225/183/188 147/6/6 208/5/5
f 236/182/187 226/184/189 225/183/188
f 232/185/190 227/186/191 226/184/189
f 226/184/189 148/7/7 147/6/6
f 148/7/7 230/187/192 152/9/9
f 227/186/191 228/188/193 230/187/192
f 231/189/194 258/190/195 235/161/196
f 235/161/196 258/190/195 252/178/197
f 258/190/195 196/179/198 252/178/197
f 238/167/170 215/191/171 212/166/167
f 229/188/199 233/185/200 237/182/201
f 234/161/163 188/192/202 186/162/164
f 231/189/194 152/9/9 230/187/192
f 224/180/203 229/188/199 237/182/201
f 208/5/5 222/181/185 225/183/188
f 224/180/203 221/176/204 251/193/205
f 194/146/183 222/181/185 239/167/186
f 228/188/193 231/189/194 230/187/192
f 164/194/206 244/171/207 241/148/208
f 3/92/22 185/195/209 255/196/210
f 255/196/210 175/140/146 173/197/211
f 162/198/134 175/140/146 190/139/145
f 189/199/212 244/171/207 164/194/206
f 246/174/213 249/173/214 199/177/215
f 199/177/215 260/200/216 246/174/213
f 189/199/212 198/177/64 247/173/217
f 220/176/181 256/201/218 250/193/219
f 245/174/179 258/190/195 218/172/177
f 257/175/180 258/190/195 256/201/218
f 218/172/177 257/175/180 219/170/174
f 217/202/157 268/114/220 265/203/221
f 217/202/157 270/204/222 158/205/223
f 5/123/15 278/206/224 32/111/121
f 71/207/35 275/116/125 276/208/225
f 158/205/223 264/151/155 178/209/143
f 71/207/35 274/210/226 294/110/227
f 265/203/221 273/210/228 276/208/225
f 278/206/224 271/125/131 269/124/130
f 278/206/224 264/151/155 277/112/122
f 270/204/222 276/208/225 275/116/125
f 264/151/155 275/116/125 277/112/122
f 210/153/166 201/163/165 297/211/229
f 203/144/156 297/211/229 216/152/157
f 290/212/230 285/213/231 283/214/232
f 286/215/233 279/216/234 284/217/235
f 281/218/236 282/219/237 279/216/234
f 282/219/237 290/212/230 283/214/232
f 280/220/238 290/212/230 288/221/239
f 250/193/219 256/201/218 231/189/194
f 62/38/38 293/222/227 51/47/42
f 53/31/34 293/222/227 62/38/38
f 332/223/240 303/224/241 312/225/242
f 330/226/243 300/227/244 316/228/245
f 310/229/246 330/226/243 316/228/245
f 314/230/247 323/231/248 305/232/249
f 308/233/250 334/234/251 314/230/247
f 318/235/252 312/225/242 300/227/244
f 305/232/249 328/236/253 310/229/246
s 0
f 340/237/126 337/238/126 351/239/126
s 1
f 364/240/254 344/241/255 346/242/256
f 370/243/257 348/244/258 366/245/259
f 368/246/260 348/244/258 350/247/261
f 368/246/260 336/248/262 354/249/263
f 354/249/263 339/250/264 357/251/264
f 364/240/254 352/252/265 370/243/257
f 362/253/266 342/254/267 344/241/255
s 0
f 331/223/31 356/251/31 320/255/31
f 322/231/31 361/253/31 363/240/31
f 329/226/31 367/246/31 317/235/31
f 327/236/31 363/240/31 369/243/31
f 327/236/31 365/245/31 329/226/31
f 317/235/31 353/249/31 331/223/31
f 333/234/31 359/256/31 361/253/31
f 309/257/31 315/258/31 302/259/31
s 1
f 341/237/268 358/260/269 324/261/270
f 338/238/268 319/262/270 355/263/269
f 319/262/270 341/237/268 324/261/270
f 301/259/271 324/261/270 306/264/271
f 377/265/272 378/266/273 374/267/274
f 372/268/275 380/269/276 373/270/277
f 389/271/278 380/269/276 379/272/279
f 386/273/280 377/265/272 376/274/281
f 383/275/282 374/267/274 373/270/277
f 380/269/276 383/275/282 373/270/277
f 387/276/283 378/266/273 377/265/272
f 374/267/274 385/277/284 375/278/285
f 388/279/286 371/280/287 378/266/273
f 371/280/287 382/281/288 372/268/275
f 382/281/288 379/272/279 372/268/275
f 375/278/285 386/273/280 376/274/281
f 403/282/289 391/283/290 401/284/291
f 400/285/292 396/286/293 404/287/294
f 404/287/294 394/288/295 402/289/296
f 392/290/297 437/291/297 403/282/289
f 440/292/297 401/284/291 400/285/292
f 392/290/297 403/282/289 401/284/291
f 440/292/297 404/287/294 397/293/297
f 436/294/297 404/287/294 402/289/296
f 436/294/297 397/293/297 404/287/294
f 431/295/298 449/296/299 393/290/300
f 409/297/301 418/298/293 411/299/302
f 405/300/303 407/301/304 442/302/303
f 405/300/303 409/297/301 411/299/302
f 442/302/303 408/303/305 448/296/303
f 407/301/304 413/304/290 408/303/305
s 0
f 417/305/297 412/304/297 419/306/297
s 1
f 408/303/305 416/307/295 410/308/306
f 411/299/302 420/306/307 407/301/304
f 424/309/308 434/310/309 426/311/310
f 433/312/311 430/313/312 425/314/313
f 452/315/314 424/309/308 422/316/315
f 430/313/312 452/315/314 422/316/315
f 445/317/303 408/303/305 410/308/306
f 451/318/316 441/292/317 406/300/318
f 465/319/319 461/320/320 464/321/321
f 398/293/293 406/300/318 441/292/317
f 451/318/316 435/322/322 441/292/317
f 449/296/299 439/291/295 393/290/300
f 438/294/295 406/300/318 398/293/293
f 393/290/300 435/322/322 431/295/298
f 453/323/323 449/296/299 431/295/298
f 453/323/323 406/300/318 443/302/307
f 427/314/324 458/324/325 456/325/326
f 423/309/327 457/326/326 455/327/328
f 456/325/326 463/328/329 460/329/330
f 454/330/331 459/331/332 465/319/319
f 455/327/328 462/332/330 459/331/332
f 454/330/331 463/328/329 458/324/325
f 421/316/324 458/324/325 429/313/324
f 423/309/327 454/330/331 421/316/324
s 0
f 469/333/333 472/334/333 467/335/333
f 475/336/334 478/337/334 473/334/334
f 479/338/335 482/339/335 477/337/335
f 485/340/336 487/341/336 483/339/336
f 490/342/337 493/343/337 488/341/337
f 494/344/338 468/345/338 492/343/338
f 486/341/31 491/346/31 471/347/31
s 1
f 401/284/291 399/348/307 400/285/292
f 523/349/339 501/350/340 503/351/341
f 524/352/342 502/353/343 504/354/344
f 524/352/342 505/355/345 525/356/346
f 521/357/347 505/355/345 501/350/340
f 500/358/348 509/359/349 510/360/350
f 500/358/348 506/361/351 496/362/352
f 508/363/353 521/357/347 523/349/339
f 509/359/349 522/364/354 524/352/342
f 509/359/349 525/356/346 510/360/350
f 510/360/350 521/357/347 506/361/351
f 496/362/352 508/363/353 498/365/355
f 499/366/356 507/367/357 509/359/349
f 514/368/358 502/353/343 512/369/359
f 515/370/360 504/354/344 514/368/358
f 515/370/360 501/350/340 505/355/345
f 511/371/361 503/351/341 501/350/340
f 499/366/356 517/372/362 497/373/355
f 500/358/348 519/374/363 499/366/356
f 500/358/348 516/375/364 520/376/365
f 496/362/352 518/377/366 516/375/364
f 528/378/367 527/379/368 526/380/369
f 530/381/370 533/382/337 532/383/371
f 526/380/369 531/384/372 530/381/370
f 526/380/369 532/383/371 528/378/367
f 535/385/372 536/386/371 534/387/373
f 541/388/334 538/389/369 540/390/367
f 539/391/368 534/387/373 538/389/369
f 540/390/367 534/387/373 536/386/371
f 123/1/1 50/109/120 200/2/2
f 82/4/4 60/53/70 208/5/5
f 148/7/7 84/79/77 82/4/4
f 91/8/8 84/79/77 148/7/7
f 13/14/14 1/23/23 4/15/15
f 34/17/17 16/24/24 15/18/18
f 30/19/19 15/18/18 14/20/20
f 14/20/20 13/14/14 31/16/16
f 13/14/14 21/25/25 2/22/22
f 18/13/13 20/10/10 15/18/18
f 20/10/10 116/12/12 14/20/20
f 14/20/20 116/12/12 21/25/25
f 43/32/32 41/62/374 19/33/13
f 19/33/13 41/62/374 103/35/33
f 53/31/34 30/19/19 72/30/30
s 0
f 52/31/31 61/38/31 27/40/31
s 1
f 128/41/36 126/57/51 8/39/37
f 89/42/8 54/392/129 56/43/39
f 58/44/40 56/43/39 24/27/27
f 57/45/41 36/88/91 96/46/90
f 65/49/45 16/24/24 34/17/17
f 34/17/17 28/40/43 65/49/45
f 63/50/46 67/48/44 28/40/43
f 43/32/32 17/34/24 66/51/45
f 263/56/50 143/59/53 8/39/37
f 143/59/53 144/393/375 63/50/46
f 75/61/55 106/64/59 104/35/56
f 74/63/58 110/66/61 106/64/59
f 48/69/64 45/85/126 114/70/65
f 44/32/67 78/73/71 75/61/55
f 75/61/55 78/73/71 79/72/68
f 78/73/71 81/75/73 98/74/72
f 82/4/4 83/76/74 81/75/73
f 83/76/74 94/78/76 98/74/72
f 85/77/75 86/81/79 94/78/76
f 84/79/77 85/77/75 83/76/74
f 84/79/77 91/8/8 92/80/78
f 93/82/80 97/46/83 120/83/81
f 120/83/81 115/70/84 46/85/85
f 100/52/47 66/51/45 69/87/44
f 38/71/66 114/70/65 96/46/90
f 93/82/80 92/80/78 91/8/8
f 87/81/87 113/89/93 80/72/92
f 93/82/80 112/89/109 86/81/79
f 35/91/98 6/394/376 3/92/22
f 23/28/28 35/91/98 22/93/99
f 11/95/11 40/26/26 23/28/28
f 105/64/97 109/66/107 39/96/101
f 49/69/103 108/65/102 122/86/105
f 118/84/82 119/68/63 76/67/62
f 120/83/81 121/86/86 107/65/60
f 119/68/63 118/84/82 120/83/81
f 135/97/110 137/107/114 140/98/111
f 129/100/113 131/104/116 136/101/114
f 132/103/115 139/105/117 131/104/116
f 133/99/112 140/98/111 139/105/117
f 130/106/118 138/395/377 140/98/111
f 296/108/119 200/2/2 50/109/120
f 32/111/121 278/206/224 277/112/122
s 0
f 291/110/123 272/210/123 266/114/123
s 1
f 73/115/124 26/113/21 277/112/122
f 155/3/3 153/396/126 127/117/126
f 151/118/128 149/397/378 55/119/129
s 0
f 127/117/126 153/396/126 261/121/126
s 1
f 5/123/15 160/150/154 269/124/130
f 4/15/15 1/23/23 165/130/136
f 184/132/138 182/135/141 167/133/139
f 182/135/141 177/137/143 166/136/142
f 159/131/137 165/130/136 166/136/142
f 165/130/136 1/23/23 2/22/22
f 167/133/139 174/126/132 170/129/135
f 166/136/142 172/127/133 174/126/132
f 166/136/142 165/130/136 254/138/144
f 171/145/150 191/149/153 193/146/151
f 171/145/150 163/398/134 242/148/152
f 160/150/154 178/209/143 264/151/155
f 157/143/149 182/135/141 203/144/156
s 0
f 179/154/31 209/153/31 202/144/31
s 1
f 154/156/158 210/153/166 142/155/159
f 204/158/160 149/397/378 151/118/128
f 176/141/147 204/158/160 206/159/161
s 0
f 205/160/162 150/9/162 234/161/162
s 1
f 184/132/138 168/134/140 211/164/167
f 211/164/167 213/399/171 180/154/168
f 180/154/168 213/399/171 145/165/54
f 212/166/167 169/147/140 193/146/151
f 240/148/173 243/171/176 219/170/174
f 243/171/176 248/173/178 218/172/177
f 198/177/64 188/192/202 253/178/182
f 219/170/174 222/181/185 194/146/183
f 219/170/174 220/176/181 223/180/184
f 222/181/185 223/180/184 236/182/187
f 225/183/188 226/184/189 147/6/6
f 236/182/187 232/185/190 226/184/189
f 232/185/190 228/188/193 227/186/191
f 226/184/189 227/186/191 148/7/7
f 148/7/7 227/186/191 230/187/192
f 231/189/194 256/201/218 258/190/195
f 258/190/195 259/200/379 196/179/198
f 238/167/170 207/5/380 215/191/171
f 234/161/163 253/178/182 188/192/202
f 231/189/194 235/161/196 152/9/9
f 224/180/203 251/193/205 229/188/199
f 228/188/193 250/193/219 231/189/194
f 3/92/22 6/394/376 185/195/209
f 255/196/210 185/195/209 175/140/146
f 162/198/134 173/197/211 175/140/146
f 189/199/212 247/173/217 244/171/207
f 199/177/215 197/179/381 260/200/216
f 220/176/181 257/175/180 256/201/218
f 245/174/179 259/200/379 258/190/195
f 257/175/180 218/172/177 258/190/195
f 217/202/157 298/108/229 268/114/220
f 217/202/157 265/203/221 270/204/222
f 5/123/15 271/125/131 278/206/224
f 71/207/35 73/115/124 275/116/125
f 158/205/223 270/204/222 264/151/155
f 71/207/35 276/208/225 274/210/226
f 265/203/221 267/114/228 273/210/228
f 278/206/224 269/124/130 264/151/155
f 270/204/222 265/203/221 276/208/225
f 264/151/155 270/204/222 275/116/125
f 203/144/156 210/153/166 297/211/229
f 290/212/230 287/400/233 285/213/231
f 286/215/233 281/218/236 279/216/234
f 281/218/236 289/401/382 282/219/237
f 282/219/237 289/401/382 290/212/230
f 280/220/238 287/400/233 290/212/230
f 53/31/34 70/37/35 293/222/227
f 332/223/240 321/255/241 303/224/241
f 330/226/243 318/235/252 300/227/244
f 310/229/246 328/236/253 330/226/243
f 314/230/247 334/234/251 323/231/248
f 308/233/250 326/402/250 334/234/251
f 318/235/252 332/223/240 312/225/242
f 305/232/249 323/231/248 328/236/253
s 0
f 337/238/126 335/403/126 347/404/126
f 335/403/126 349/405/126 347/404/126
f 347/404/126 351/239/126 337/238/126
f 351/239/126 345/406/126 343/407/126
f 343/407/126 340/237/126 351/239/126
s 1
f 364/240/254 362/253/266 344/241/255
f 370/243/257 352/252/265 348/244/258
f 368/246/260 366/245/259 348/244/258
f 368/246/260 350/247/261 336/248/262
f 354/249/263 336/248/262 339/250/264
f 364/240/254 346/242/256 352/252/265
f 362/253/266 360/256/267 342/254/267
s 0
f 331/223/31 353/249/31 356/251/31
f 322/231/31 333/234/31 361/253/31
f 329/226/31 365/245/31 367/246/31
f 327/236/31 322/231/31 363/240/31
f 327/236/31 369/243/31 365/245/31
f 317/235/31 367/246/31 353/249/31
f 333/234/31 325/402/31 359/256/31
f 299/408/31 311/409/31 315/258/31
f 311/409/31 302/259/31 315/258/31
f 302/259/31 307/264/31 309/257/31
f 307/264/31 313/410/31 309/257/31
f 313/410/31 304/411/31 309/257/31
s 1
f 319/262/270 338/238/268 341/237/268
f 301/259/271 319/262/270 324/261/270
f 378/266/273 371/280/287 372/268/275
f 372/268/275 373/270/277 378/266/273
f 373/270/277 374/267/274 378/266/273
f 374/267/274 375/278/285 376/274/281
f 376/274/281 377/265/272 374/267/274
f 372/268/275 379/272/279 380/269/276
f 389/271/278 390/412/383 380/269/276
f 386/273/280 387/276/283 377/265/272
f 383/275/282 384/413/384 374/267/274
f 380/269/276 390/412/383 383/275/282
f 387/276/283 388/279/286 378/266/273
f 374/267/274 384/413/384 385/277/284
f 388/279/286 381/414/385 371/280/287
f 371/280/287 381/414/385 382/281/288
f 382/281/288 389/271/278 379/272/279
f 375/278/285 385/277/284 386/273/280
f 403/282/289 395/415/295 391/283/290
f 400/285/292 399/348/307 396/286/293
f 404/287/294 396/286/293 394/288/295
f 440/292/297 392/290/297 401/284/291
f 440/292/297 400/285/292 404/287/294
f 409/297/301 415/416/295 418/298/293
f 405/300/303 411/299/302 407/301/304
f 405/300/303 444/417/303 409/297/301
f 442/302/303 407/301/304 408/303/305
f 407/301/304 420/306/307 413/304/290
s 0
f 417/305/297 414/418/297 412/304/297
s 1
f 408/303/305 413/304/290 416/307/295
f 411/299/302 418/298/293 420/306/307
f 424/309/308 432/419/386 434/310/309
f 433/312/311 450/420/387 430/313/312
f 452/315/314 432/419/386 424/309/308
f 430/313/312 450/420/387 452/315/314
f 445/317/303 448/296/303 408/303/305
f 465/319/319 459/331/332 461/320/320
f 449/296/299 447/317/295 439/291/295
f 438/294/295 446/417/295 406/300/318
f 393/290/300 441/292/317 435/322/322
f 453/323/323 443/302/307 449/296/299
f 453/323/323 451/318/316 406/300/318
f 427/314/324 429/313/324 458/324/325
f 423/309/327 428/311/324 457/326/326
f 456/325/326 458/324/325 463/328/329
f 454/330/331 455/327/328 459/331/332
f 455/327/328 457/326/326 462/332/330
f 454/330/331 465/319/319 463/328/329
f 421/316/324 454/330/331 458/324/325
f 423/309/327 455/327/328 454/330/331
s 0
f 469/333/333 474/336/333 472/334/333
f 475/336/334 480/338/334 478/337/334
f 479/338/335 484/340/335 482/339/335
f 485/340/336 489/342/336 487/341/336
f 490/342/337 495/344/337 493/343/337
f 494/344/338 470/421/338 468/345/338
f 491/346/31 466/422/31 471/347/31
f 471/347/31 476/423/31 481/339/31
f 481/339/31 486/341/31 471/347/31
s 1
f 401/284/291 391/283/290 399/348/307
f 523/349/339 521/357/347 501/350/340
f 524/352/342 522/364/354 502/353/343
f 524/352/342 504/354/344 505/355/345
f 521/357/347 525/356/346 505/355/345
f 500/358/348 499/366/356 509/359/349
f 500/358/348 510/360/350 506/361/351
f 508/363/353 506/361/351 521/357/347
f 509/359/349 507/367/357 522/364/354
f 509/359/349 524/352/342 525/356/346
f 510/360/350 525/356/346 521/357/347
f 496/362/352 506/361/351 508/363/353
f 499/366/356 497/373/355 507/367/357
f 514/368/358 504/354/344 502/353/343
f 515/370/360 505/355/345 504/354/344
f 515/370/360 511/371/361 501/350/340
f 511/371/361 513/424/388 503/351/341
f 499/366/356 519/374/363 517/372/362
f 500/358/348 520/376/365 519/374/363
f 500/358/348 496/362/352 516/375/364
f 496/362/352 498/365/355 518/377/366
f 528/378/367 529/425/334 527/379/368
f 530/381/370 531/384/372 533/382/337
f 526/380/369 527/379/368 531/384/372
f 526/380/369 530/381/370 532/383/371
f 535/385/372 537/426/337 536/386/371
f 541/388/334 539/391/368 538/389/369
f 539/391/368 535/385/372 534/387/373
f 540/390/367 538/389/369 534/387/373
