# Blender 5.2.0 LTS
# www.blender.org
mtllib window.mtl
o cage_Cube
v -0.990749 -104.500000 -11.544405
v -0.990749 -109.000000 -11.544405
v -89.499992 -109.000000 -11.544405
v -89.499992 -104.500000 -11.544405
v 89.500008 -104.500000 -11.544405
v 94.000008 -104.500000 -11.544405
v 94.000008 -109.000000 -11.544405
v 89.500008 -109.000000 -11.544405
v 89.500008 -109.000000 12.494057
v 94.000008 -109.000000 12.494057
v 94.000008 109.000000 12.494076
v 94.000008 109.000000 -11.544386
v 89.500008 109.000000 -11.544386
v 89.500008 109.000000 12.494076
v -93.999992 -104.499992 12.494057
v -93.999992 -104.500000 -11.544405
v -93.999992 -109.000000 -11.544405
v -93.999992 -109.000000 12.494057
v -89.499992 -109.000000 12.494057
v -89.499992 109.000000 12.494076
v -89.499992 109.000000 -11.544386
v -93.999992 109.000000 -11.544386
v -93.999992 109.000000 12.494076
v 94.000008 104.500000 -11.544386
v 89.500008 104.500000 -11.544386
v 0.000008 109.000000 12.494076
v 0.000008 109.000000 -11.544386
v -89.499992 104.500000 -11.544386
v -93.999992 104.500000 -11.544386
v -93.999992 104.500000 12.494076
v 89.500008 104.500000 10.062953
v 89.500008 -104.499992 10.062934
v -0.990749 -104.500000 10.062934
v -89.499992 -104.500000 10.062934
v 0.000008 104.500000 -11.544386
v -0.990749 -109.000000 12.494057
v 94.000008 -104.500000 12.494057
v 94.000008 104.500000 12.494076
v 0.000008 104.500000 10.062953
v -89.499992 104.500000 10.062953
v 89.500008 104.500000 12.555254
v 89.500008 -104.499992 12.555235
v -0.990749 -104.500000 12.555235
v 0.000008 104.500000 12.555254
v 89.500008 109.000000 13.455614
v 94.000008 109.000000 13.455614
v -89.499992 104.500000 12.555254
v -89.499992 104.500000 13.455614
v -89.499992 -104.500000 13.455595
v -89.499992 -104.500000 12.555235
v -93.999992 109.000000 13.455614
v -89.499992 109.000000 13.455614
v -89.499992 -109.000000 13.455595
v -93.999992 -109.000000 13.455595
v 0.000008 104.500000 13.455614
v 0.000008 109.000000 13.455614
v 89.500008 104.500000 13.455614
v 89.500008 -104.499992 13.455595
v 94.000008 -104.500000 13.455595
v 94.000008 104.500000 13.455614
v -0.990749 -104.500000 13.455595
v -0.990749 -109.000000 13.455595
v 89.500008 -109.000000 13.455595
v 94.000008 -109.000000 13.455595
v -93.999992 104.500000 13.455614
v -93.999992 -104.499992 13.455595
vn -0.0000 1.0000 -0.0000
vn 1.0000 -0.0000 -0.0000
vn -0.0000 -1.0000 -0.0000
vn -0.0000 -0.0000 1.0000
vn -1.0000 -0.0000 -0.0000
vn -0.0000 -0.0000 -1.0000
s 1
usemtl Cage_in
f 45//1 46//1 11//1 14//1
f 47//2 48//2 49//2 50//2
f 23//1 51//1 52//1 20//1
f 18//3 19//3 53//3 54//3
f 55//4 56//4 52//4 48//4
f 57//4 58//4 59//4 60//4
f 61//4 62//4 63//4 58//4
f 58//4 63//4 64//4 59//4
f 44//3 55//3 48//3 47//3
f 11//2 46//2 60//2 38//2
f 65//5 51//5 23//5 30//5
f 10//3 64//3 63//3 9//3
f 18//5 54//5 66//5 15//5
f 38//2 60//2 59//2 37//2
f 56//1 26//1 20//1 52//1
f 51//4 65//4 48//4 52//4
f 60//4 46//4 45//4 57//4
f 65//5 30//5 15//5 66//5
f 37//2 59//2 64//2 10//2
f 48//4 65//4 66//4 49//4
f 36//3 62//3 53//3 19//3
f 66//4 54//4 53//4 49//4
f 43//1 33//1 34//1 50//1
f 57//5 41//5 42//5 58//5
f 61//1 43//1 50//1 49//1
f 39//3 44//3 47//3 40//3
f 40//2 47//2 50//2 34//2
f 58//1 42//1 43//1 61//1
f 9//3 63//3 62//3 36//3
f 49//4 53//4 62//4 61//4
f 45//1 14//1 26//1 56//1
f 41//3 57//3 55//3 44//3
f 57//4 45//4 56//4 55//4
usemtl Cage_out
f 1//6 2//6 3//6 4//6
f 5//6 6//6 7//6 8//6
f 9//3 8//3 7//3 10//3
f 11//1 12//1 13//1 14//1
f 15//5 16//5 17//5 18//5
f 16//6 4//6 3//6 17//6
f 18//3 17//3 3//3 19//3
f 20//1 21//1 22//1 23//1
f 13//6 12//6 24//6 25//6
f 26//1 27//1 21//1 20//1
f 22//6 21//6 28//6 29//6
f 23//5 22//5 29//5 30//5
f 29//6 28//6 4//6 16//6
f 31//5 25//5 5//5 32//5
f 30//5 29//5 16//5 15//5
f 25//6 24//6 6//6 5//6
f 27//6 35//6 28//6 21//6
f 2//3 36//3 19//3 3//3
f 6//2 37//2 10//2 7//2
f 12//2 11//2 38//2 24//2
f 24//2 38//2 37//2 6//2
f 35//3 39//3 40//3 28//3
f 41//5 31//5 32//5 42//5
f 28//2 40//2 34//2 4//2
f 42//1 32//1 33//1 43//1
f 8//3 9//3 36//3 2//3
f 5//6 8//6 2//6 1//6
f 31//3 41//3 44//3 39//3
f 25//3 31//3 39//3 35//3
f 13//6 25//6 35//6 27//6
f 14//1 13//1 27//1 26//1
o sweethome3d_opening_on_rail_1_frame
v -2.256729 99.823997 11.735144
v -2.256729 104.373276 11.735145
v -2.256729 104.373276 10.485149
v -2.256729 99.823997 10.485148
v 2.243271 104.373276 11.735145
v 2.243271 104.373276 10.485149
v 2.243271 99.823997 12.985140
v 2.243271 104.373276 12.985140
v -2.256729 104.373276 12.985140
v -2.256729 99.823997 12.985140
v -2.256729 -99.823997 11.735136
v -2.256729 -99.823997 12.985131
v 84.973267 99.823997 12.985140
v 84.973267 -99.823997 12.985131
v 89.473267 -99.823997 12.985131
v 89.473267 99.823997 12.985140
v 84.973267 104.373276 12.985140
v 89.473267 99.823997 11.735144
v 89.473267 99.823997 10.485148
v 89.473267 104.373276 10.485149
v 89.473267 104.373276 11.735145
v 84.973267 104.373276 10.485149
v 84.973267 104.373276 11.735145
v 89.473267 104.373276 12.985140
v 89.473267 -99.823997 11.735136
v 89.473267 -99.823997 10.485141
v 84.973267 -104.373276 11.735135
v 84.973267 -104.373276 12.985130
v 2.243271 -104.373276 12.985130
v 2.243271 -104.373276 11.735135
v -2.256729 -99.823997 10.485141
v -2.256729 -104.373276 10.485140
v -2.256729 -104.373276 11.735135
v 2.243271 -104.373276 10.485140
v 2.243271 -99.823997 12.985131
v -2.256729 -104.373276 12.985130
v 89.473267 -104.373276 11.735135
v 89.473267 -104.373276 10.485140
v 84.973267 -104.373276 10.485140
v 89.473267 -104.373276 12.985130
v 84.973267 -99.823997 11.735136
v 2.243271 -99.823997 11.735136
v 84.973267 99.823997 11.735144
v 2.243271 99.823997 11.735144
v 2.243271 99.823997 10.485148
v 2.243271 -99.823997 10.485141
v 84.973267 99.823997 10.485148
v 84.973267 -99.823997 10.485141
vn -1.0000 -0.0000 -0.0000
vn -0.0000 1.0000 -0.0000
vn -0.0000 -0.0000 1.0000
vn 1.0000 -0.0000 -0.0000
vn -0.0000 -1.0000 -0.0000
vn -0.0000 -0.0000 -1.0000
s 1
usemtl Frame_in
f 67//7 68//7 69//7 70//7
f 68//8 71//8 72//8 69//8
f 73//9 74//9 75//9 76//9
f 67//7 77//7 78//7 76//7
f 79//9 80//9 81//9 82//9
f 83//9 74//9 73//9 79//9
f 84//10 85//10 86//10 87//10
f 87//8 86//8 88//8 89//8
f 79//9 82//9 90//9 83//9
f 84//10 91//10 92//10 85//10
f 93//11 94//11 95//11 96//11
f 77//7 97//7 98//7 99//7
f 99//11 98//11 100//11 96//11
f 101//9 78//9 102//9 95//9
f 76//9 78//9 101//9 73//9
f 94//9 80//9 101//9 95//9
f 91//10 103//10 104//10 92//10
f 103//11 93//11 105//11 104//11
f 80//9 94//9 106//9 81//9
f 89//8 71//8 74//8 83//8
f 88//8 72//8 71//8 89//8
f 106//11 94//11 93//11 103//11
f 81//10 106//10 103//10 91//10
f 102//11 99//11 96//11 95//11
f 78//7 77//7 99//7 102//7
f 105//11 93//11 96//11 100//11
f 82//10 81//10 91//10 84//10
f 90//8 87//8 89//8 83//8
f 82//10 84//10 87//10 90//10
f 70//7 97//7 77//7 67//7
f 75//8 74//8 71//8 68//8
f 76//7 75//7 68//7 67//7
f 80//8 107//8 108//8 101//8
f 80//7 79//7 109//7 107//7
f 79//11 73//11 110//11 109//11
f 101//10 108//10 110//10 73//10
usemtl Frame_out
f 70//12 69//12 72//12 111//12
f 111//12 112//12 97//12 70//12
f 108//10 112//10 111//10 110//10
f 113//12 111//12 72//12 88//12
f 109//11 110//11 111//11 113//11
f 85//12 113//12 88//12 86//12
f 85//12 92//12 114//12 113//12
f 107//7 109//7 113//7 114//7
f 97//12 112//12 100//12 98//12
f 114//12 105//12 100//12 112//12
f 107//8 114//8 112//8 108//8
f 92//12 104//12 105//12 114//12
o sweethome3d_opening_on_rail_1_glass
v 2.173702 -99.897133 11.861975
v 2.173702 99.897141 11.861978
v 2.173702 99.897133 11.661978
v 2.173702 -99.897141 11.661974
v 85.042847 99.897141 11.861978
v 85.042847 99.897133 11.661978
v 85.042847 -99.897133 11.861975
v 85.042847 -99.897141 11.661974
vn -1.0000 -0.0000 -0.0000
vn -0.0000 1.0000 -0.0000
vn 1.0000 -0.0000 -0.0000
vn -0.0000 -1.0000 -0.0000
vn -0.0000 -0.0000 -1.0000
vn -0.0000 -0.0000 1.0000
s 1
usemtl Glass
f 115//13 116//13 117//13 118//13
f 116//14 119//14 120//14 117//14
f 119//15 121//15 122//15 120//15
f 121//16 115//16 118//16 122//16
f 118//17 117//17 120//17 122//17
f 121//18 119//18 116//18 115//18
o sweethome3d_opening_on_rail_1_handle
v 86.058983 4.494537 13.222415
v 86.058983 8.499999 13.222414
v 86.058983 8.499998 13.006413
v 86.058983 4.494535 13.006415
v 88.065277 8.499999 13.222414
v 88.374626 8.499999 13.222414
v 88.374626 8.499998 13.006413
v 88.065277 8.499998 13.006413
v 88.374626 -4.494538 13.222413
v 88.374626 -8.500000 13.222415
v 88.374626 -8.500001 13.006414
v 88.374626 -4.494539 13.006413
v 86.368332 -8.500000 13.222415
v 86.058983 -8.500000 13.222415
v 86.058983 -8.500001 13.006414
v 86.368332 -8.500001 13.006414
v 88.065277 4.494535 13.006415
v 88.374626 4.494536 13.006415
v 86.368332 4.494536 13.222415
v 86.368332 8.499999 13.222414
v 86.368332 -4.494537 13.222413
v 86.058983 -4.494537 13.222413
v 88.065277 -8.500001 13.006414
v 88.065277 -4.494539 13.006413
v 88.374626 4.494536 13.222415
v 86.058983 -4.494540 13.006413
v 86.368332 4.494535 13.006415
v 86.368332 -4.494539 13.006413
v 88.065277 4.494536 13.222415
v 88.065277 -4.494537 13.222413
v 88.065277 4.494537 13.039409
v 88.065277 -4.494537 13.039407
v 88.065277 -8.500000 13.222415
v 86.368332 8.499998 13.006413
v 86.368332 -4.494537 13.039407
v 86.368332 4.494537 13.039409
vn -0.0000 -0.0000 1.0000
vn -1.0000 -0.0000 -0.0000
vn -0.0000 1.0000 -0.0000
vn 1.0000 -0.0000 -0.0000
vn -0.0000 -1.0000 -0.0000
vn -0.0000 -0.0000 -1.0000
s 1
usemtl black-plastic
f 154//19 153//19 158//19 157//19
usemtl Frame_in
f 123//20 124//20 125//20 126//20
f 127//21 128//21 129//21 130//21
f 131//22 132//22 133//22 134//22
f 135//23 136//23 137//23 138//23
f 139//24 130//24 129//24 140//24
f 141//19 142//19 124//19 123//19
f 135//19 143//19 144//19 136//19
f 143//19 141//19 123//19 144//19
f 145//24 146//24 134//24 133//24
f 146//24 139//24 140//24 134//24
f 128//22 147//22 140//22 129//22
f 147//22 131//22 134//22 140//22
f 136//20 144//20 148//20 137//20
f 144//20 123//20 126//20 148//20
f 148//24 126//24 149//24 150//24
f 150//24 149//24 139//24 146//24
f 137//24 148//24 150//24 138//24
f 138//24 150//24 146//24 145//24
f 131//19 147//19 151//19 152//19
f 152//20 151//20 153//20 154//20
f 132//19 131//19 152//19 155//19
f 155//19 152//19 143//19 135//19
f 147//19 128//19 127//19 151//19
f 151//19 127//19 142//19 141//19
f 126//24 125//24 156//24 149//24
f 149//24 156//24 130//24 139//24
f 132//23 155//23 145//23 133//23
f 155//23 135//23 138//23 145//23
f 124//21 142//21 156//21 125//21
f 142//21 127//21 130//21 156//21
f 141//22 143//22 157//22 158//22
f 143//21 152//21 154//21 157//21
f 151//23 141//23 158//23 153//23
o sweethome3d_opening_on_rail_2_frame
v -84.973282 99.823997 10.485140
v -84.973282 104.373276 10.485140
v -89.473282 104.373276 10.485140
v -89.473282 99.823997 10.485140
v -2.243237 99.823997 10.485140
v -2.243237 -99.823997 10.485131
v 2.256763 -99.823997 10.485131
v 2.256763 99.823997 10.485140
v -2.243237 104.373276 10.485140
v 2.256763 104.373276 10.485140
v -84.973282 -99.823997 10.485131
v -89.473282 -99.823997 10.485131
v -89.473282 -104.373276 10.485130
v -84.973282 -104.373276 10.485130
v -2.243237 -104.373276 10.485130
v 2.256763 -104.373276 10.485130
v -2.243237 -104.373276 9.235135
v 2.256763 -104.373276 9.235135
v -2.243237 -99.823997 9.235136
v -84.973282 -99.823997 9.235136
v -2.243237 99.823997 9.235144
v -84.973282 99.823997 9.235144
v -89.473282 99.823997 9.235144
v -89.473282 104.373276 9.235145
v -89.473282 104.373276 7.985149
v -89.473282 99.823997 7.985148
v -84.973282 104.373276 9.235145
v -84.973282 104.373276 7.985149
v -84.973282 99.823997 7.985148
v -89.473282 -99.823997 9.235136
v -84.973282 -99.823997 7.985141
v -89.473282 -99.823997 7.985141
v -2.243237 99.823997 7.985148
v -2.243237 104.373276 7.985149
v 2.256763 99.823997 9.235144
v 2.256763 99.823997 7.985148
v 2.256763 104.373276 7.985149
v 2.256763 104.373276 9.235145
v -2.243237 104.373276 9.235145
v 2.256763 -99.823997 9.235136
v 2.256763 -99.823997 7.985141
v -2.243237 -99.823997 7.985141
v -84.973282 -104.373276 9.235135
v -89.473282 -104.373276 7.985140
v -89.473282 -104.373276 9.235135
v -84.973282 -104.373276 7.985140
v -2.243237 -104.373276 7.985140
v 2.256763 -104.373276 7.985140
vn -0.0000 -0.0000 1.0000
vn -0.0000 -1.0000 -0.0000
vn -0.0000 1.0000 -0.0000
vn -1.0000 -0.0000 -0.0000
vn 1.0000 -0.0000 -0.0000
vn -0.0000 -0.0000 -1.0000
s 1
usemtl Frame_in
f 159//25 160//25 161//25 162//25
f 163//25 164//25 165//25 166//25
f 167//25 160//25 159//25 163//25
f 163//25 166//25 168//25 167//25
f 169//25 170//25 171//25 172//25
f 162//25 170//25 169//25 159//25
f 173//25 164//25 169//25 172//25
f 164//25 173//25 174//25 165//25
f 174//26 173//26 175//26 176//26
f 164//27 177//27 178//27 169//27
f 164//28 163//28 179//28 177//28
f 163//26 159//26 180//26 179//26
f 169//29 178//29 180//29 159//29
usemtl Frame_out
f 181//28 182//28 183//28 184//28
f 182//27 185//27 186//27 183//27
f 184//30 183//30 186//30 187//30
f 181//28 188//28 170//28 162//28
f 187//30 189//30 190//30 184//30
f 178//29 189//29 187//29 180//29
f 191//30 187//30 186//30 192//30
f 179//26 180//26 187//26 191//26
f 193//29 194//29 195//29 196//29
f 196//27 195//27 192//27 197//27
f 194//30 191//30 192//30 195//30
f 193//29 198//29 199//29 194//29
f 194//30 199//30 200//30 191//30
f 177//28 179//28 191//28 200//28
f 175//26 173//26 172//26 201//26
f 188//28 190//28 202//28 203//28
f 203//26 202//26 204//26 201//26
f 190//30 189//30 204//30 202//30
f 200//30 205//30 204//30 189//30
f 177//27 200//27 189//27 178//27
f 198//29 176//29 206//29 199//29
f 176//26 175//26 205//26 206//26
f 199//30 206//30 205//30 200//30
f 197//27 185//27 160//27 167//27
f 192//27 186//27 185//27 197//27
f 165//29 174//29 176//29 198//29
f 171//26 203//26 201//26 172//26
f 170//28 188//28 203//28 171//28
f 205//26 175//26 201//26 204//26
f 166//29 165//29 198//29 193//29
f 168//27 196//27 197//27 167//27
f 166//29 193//29 196//29 168//29
f 184//28 190//28 188//28 181//28
f 161//27 160//27 185//27 182//27
f 162//28 161//28 182//28 181//28
o sweethome3d_opening_on_rail_2_glass
v -85.042847 -99.897133 9.361975
v -85.042847 99.897141 9.361978
v -85.042847 99.897133 9.161978
v -85.042847 -99.897141 9.161974
v -2.173710 99.897141 9.361978
v -2.173710 99.897133 9.161978
v -2.173710 -99.897133 9.361975
v -2.173710 -99.897141 9.161974
vn -1.0000 -0.0000 -0.0000
vn -0.0000 1.0000 -0.0001
vn 1.0000 -0.0000 -0.0000
vn -0.0000 -1.0000 0.0001
vn -0.0000 -0.0000 -1.0000
vn -0.0000 -0.0000 1.0000
s 1
usemtl Glass
f 207//31 208//31 209//31 210//31
f 208//32 211//32 212//32 209//32
f 211//33 213//33 214//33 212//33
f 213//34 207//34 210//34 214//34
f 210//35 209//35 212//35 214//35
f 213//36 211//36 208//36 207//36
o sweethome3d_opening_on_rail_2_handle
v -88.397964 4.494538 10.722415
v -88.397964 8.499999 10.722414
v -88.397964 8.499998 10.506413
v -88.397964 4.494535 10.506415
v -86.391670 8.499999 10.722414
v -86.082321 8.499999 10.722414
v -86.082321 8.499998 10.506413
v -86.391670 8.499998 10.506413
v -86.082321 -4.494538 10.722413
v -86.082321 -8.500000 10.722415
v -86.082321 -8.500001 10.506414
v -86.082321 -4.494539 10.506413
v -88.088615 -8.500000 10.722415
v -88.397964 -8.500000 10.722415
v -88.397964 -8.500001 10.506414
v -88.088615 -8.500001 10.506414
v -86.391670 4.494535 10.506415
v -86.082321 4.494536 10.506415
v -88.088615 4.494537 10.722415
v -88.088615 8.499999 10.722414
v -88.088615 -4.494537 10.722413
v -88.397964 -4.494537 10.722413
v -86.391670 -8.500001 10.506414
v -86.391670 -4.494539 10.506413
v -86.082321 4.494537 10.722415
v -88.397964 -4.494540 10.506413
v -88.088615 4.494535 10.506415
v -88.088615 -4.494539 10.506413
v -86.391670 4.494537 10.722415
v -86.391670 -4.494537 10.722413
v -86.391670 4.494537 10.539409
v -86.391670 -4.494537 10.539407
v -86.391670 -8.500000 10.722415
v -88.088615 8.499998 10.506413
v -88.088615 -4.494537 10.539407
v -88.088615 4.494537 10.539409
vn -0.0000 -0.0000 1.0000
vn -1.0000 -0.0000 -0.0000
vn -0.0000 1.0000 -0.0000
vn 1.0000 -0.0000 -0.0000
vn -0.0000 -1.0000 -0.0000
vn -0.0000 -0.0000 -1.0000
s 1
usemtl black-plastic
f 246//37 245//37 250//37 249//37
usemtl Frame_in
f 215//38 216//38 217//38 218//38
f 219//39 220//39 221//39 222//39
f 223//40 224//40 225//40 226//40
f 227//41 228//41 229//41 230//41
f 231//42 222//42 221//42 232//42
f 233//37 234//37 216//37 215//37
f 227//37 235//37 236//37 228//37
f 235//37 233//37 215//37 236//37
f 237//42 238//42 226//42 225//42
f 238//42 231//42 232//42 226//42
f 220//40 239//40 232//40 221//40
f 239//40 223//40 226//40 232//40
f 228//38 236//38 240//38 229//38
f 236//38 215//38 218//38 240//38
f 240//42 218//42 241//42 242//42
f 242//42 241//42 231//42 238//42
f 229//42 240//42 242//42 230//42
f 230//42 242//42 238//42 237//42
f 223//37 239//37 243//37 244//37
f 244//38 243//38 245//38 246//38
f 224//37 223//37 244//37 247//37
f 247//37 244//37 235//37 227//37
f 239//37 220//37 219//37 243//37
f 243//37 219//37 234//37 233//37
f 218//42 217//42 248//42 241//42
f 241//42 248//42 222//42 231//42
f 224//41 247//41 237//41 225//41
f 247//41 227//41 230//41 237//41
f 216//39 234//39 248//39 217//39
f 234//39 219//39 222//39 248//39
f 233//40 235//40 249//40 250//40
f 235//39 244//39 246//39 249//39
f 243//41 233//41 250//41 245//41
o sweethome3d_unique_rail_cage
v -0.990749 -104.500000 -11.544405
v -89.499992 -104.500000 -11.544405
v 89.500008 -104.500000 -11.544405
v 89.500008 -104.499992 10.062934
v -0.990749 -104.500000 10.062934
v -89.499992 -104.500000 10.062934
vn -0.0000 1.0000 -0.0000
s 1
usemtl Cage_out
f 255//43 251//43 252//43 256//43
f 254//43 253//43 251//43 255//43
